<svg width="730" height="523" viewBox="0 0 730 523" fill="none" xmlns="http://www.w3.org/2000/svg">
<rect x="29" y="22" width="100" height="100" stroke="#F4A258" stroke-opacity="0.3" stroke-width="2" stroke-linejoin="round" stroke-dasharray="2 2"/>
<rect x="29" y="122" width="100" height="100" stroke="#F4A258" stroke-opacity="0.3" stroke-width="2" stroke-linejoin="round" stroke-dasharray="2 2"/>
<rect x="29" y="222" width="100" height="100" stroke="#F4A258" stroke-opacity="0.3" stroke-width="2" stroke-linejoin="round" stroke-dasharray="2 2"/>
<rect x="29" y="322" width="100" height="100" stroke="#F4A258" stroke-opacity="0.3" stroke-width="2" stroke-linejoin="round" stroke-dasharray="2 2"/>
<rect x="29" y="422" width="100" height="100" stroke="#F4A258" stroke-opacity="0.3" stroke-width="2" stroke-linejoin="round" stroke-dasharray="2 2"/>
<rect x="129" y="22" width="100" height="100" stroke="#F4A258" stroke-opacity="0.3" stroke-width="2" stroke-linejoin="round" stroke-dasharray="2 2"/>
<rect x="129" y="122" width="100" height="100" stroke="#F4A258" stroke-opacity="0.3" stroke-width="2" stroke-linejoin="round" stroke-dasharray="2 2"/>
<rect x="129" y="222" width="100" height="100" stroke="#F4A258" stroke-opacity="0.3" stroke-width="2" stroke-linejoin="round" stroke-dasharray="2 2"/>
<rect x="129" y="322" width="100" height="100" stroke="#F4A258" stroke-opacity="0.3" stroke-width="2" stroke-linejoin="round" stroke-dasharray="2 2"/>
<rect x="129" y="422" width="100" height="100" stroke="#F4A258" stroke-opacity="0.3" stroke-width="2" stroke-linejoin="round" stroke-dasharray="2 2"/>
<rect x="229" y="22" width="100" height="100" stroke="#F4A258" stroke-opacity="0.3" stroke-width="2" stroke-linejoin="round" stroke-dasharray="2 2"/>
<rect x="229" y="122" width="100" height="100" stroke="#F4A258" stroke-opacity="0.3" stroke-width="2" stroke-linejoin="round" stroke-dasharray="2 2"/>
<rect x="229" y="222" width="100" height="100" stroke="#F4A258" stroke-opacity="0.3" stroke-width="2" stroke-linejoin="round" stroke-dasharray="2 2"/>
<rect x="229" y="322" width="100" height="100" stroke="#F4A258" stroke-opacity="0.3" stroke-width="2" stroke-linejoin="round" stroke-dasharray="2 2"/>
<rect x="229" y="422" width="100" height="100" stroke="#F4A258" stroke-opacity="0.3" stroke-width="2" stroke-linejoin="round" stroke-dasharray="2 2"/>
<rect x="329" y="22" width="100" height="100" stroke="#F4A258" stroke-opacity="0.3" stroke-width="2" stroke-linejoin="round" stroke-dasharray="2 2"/>
<rect x="329" y="122" width="100" height="100" stroke="#F4A258" stroke-opacity="0.3" stroke-width="2" stroke-linejoin="round" stroke-dasharray="2 2"/>
<rect x="329" y="222" width="100" height="100" stroke="#F4A258" stroke-opacity="0.3" stroke-width="2" stroke-linejoin="round" stroke-dasharray="2 2"/>
<rect x="329" y="322" width="100" height="100" stroke="#F4A258" stroke-opacity="0.3" stroke-width="2" stroke-linejoin="round" stroke-dasharray="2 2"/>
<rect x="329" y="422" width="100" height="100" stroke="#F4A258" stroke-opacity="0.3" stroke-width="2" stroke-linejoin="round" stroke-dasharray="2 2"/>
<rect x="429" y="22" width="100" height="100" stroke="#F4A258" stroke-opacity="0.3" stroke-width="2" stroke-linejoin="round" stroke-dasharray="2 2"/>
<rect x="429" y="122" width="100" height="100" stroke="#F4A258" stroke-opacity="0.3" stroke-width="2" stroke-linejoin="round" stroke-dasharray="2 2"/>
<rect x="429" y="222" width="100" height="100" stroke="#F4A258" stroke-opacity="0.3" stroke-width="2" stroke-linejoin="round" stroke-dasharray="2 2"/>
<rect x="429" y="322" width="100" height="100" stroke="#F4A258" stroke-opacity="0.3" stroke-width="2" stroke-linejoin="round" stroke-dasharray="2 2"/>
<rect x="429" y="422" width="100" height="100" stroke="#F4A258" stroke-opacity="0.3" stroke-width="2" stroke-linejoin="round" stroke-dasharray="2 2"/>
<rect x="529" y="22" width="100" height="100" stroke="#F4A258" stroke-opacity="0.3" stroke-width="2" stroke-linejoin="round" stroke-dasharray="2 2"/>
<rect x="529" y="122" width="100" height="100" stroke="#F4A258" stroke-opacity="0.3" stroke-width="2" stroke-linejoin="round" stroke-dasharray="2 2"/>
<rect x="529" y="222" width="100" height="100" stroke="#F4A258" stroke-opacity="0.3" stroke-width="2" stroke-linejoin="round" stroke-dasharray="2 2"/>
<rect x="529" y="322" width="100" height="100" stroke="#F4A258" stroke-opacity="0.3" stroke-width="2" stroke-linejoin="round" stroke-dasharray="2 2"/>
<rect x="529" y="422" width="100" height="100" stroke="#F4A258" stroke-opacity="0.3" stroke-width="2" stroke-linejoin="round" stroke-dasharray="2 2"/>
<rect x="629" y="22" width="100" height="100" stroke="#F4A258" stroke-opacity="0.3" stroke-width="2" stroke-linejoin="round" stroke-dasharray="2 2"/>
<rect x="629" y="122" width="100" height="100" stroke="#F4A258" stroke-opacity="0.3" stroke-width="2" stroke-linejoin="round" stroke-dasharray="2 2"/>
<rect x="629" y="222" width="100" height="100" stroke="#F4A258" stroke-opacity="0.3" stroke-width="2" stroke-linejoin="round" stroke-dasharray="2 2"/>
<rect x="629" y="322" width="100" height="100" stroke="#F4A258" stroke-opacity="0.3" stroke-width="2" stroke-linejoin="round" stroke-dasharray="2 2"/>
<rect x="629" y="422" width="100" height="100" stroke="#F4A258" stroke-opacity="0.3" stroke-width="2" stroke-linejoin="round" stroke-dasharray="2 2"/>
<rect x="1" y="1" width="100" height="100" stroke="#00111A" stroke-width="2" stroke-linejoin="round" stroke-dasharray="2 2"/>
<rect x="1" y="101" width="100" height="100" stroke="#00111A" stroke-width="2" stroke-linejoin="round" stroke-dasharray="2 2"/>
<rect x="1" y="201" width="100" height="100" stroke="#00111A" stroke-width="2" stroke-linejoin="round" stroke-dasharray="2 2"/>
<rect x="1" y="301" width="100" height="100" stroke="#00111A" stroke-width="2" stroke-linejoin="round" stroke-dasharray="2 2"/>
<rect x="1" y="401" width="100" height="100" stroke="#00111A" stroke-width="2" stroke-linejoin="round" stroke-dasharray="2 2"/>
<rect x="101" y="1" width="100" height="100" stroke="#00111A" stroke-width="2" stroke-linejoin="round" stroke-dasharray="2 2"/>
<rect x="101" y="101" width="100" height="100" stroke="#00111A" stroke-width="2" stroke-linejoin="round" stroke-dasharray="2 2"/>
<rect x="101" y="201" width="100" height="100" stroke="#00111A" stroke-width="2" stroke-linejoin="round" stroke-dasharray="2 2"/>
<rect x="101" y="301" width="100" height="100" stroke="#00111A" stroke-width="2" stroke-linejoin="round" stroke-dasharray="2 2"/>
<rect x="101" y="401" width="100" height="100" stroke="#00111A" stroke-width="2" stroke-linejoin="round" stroke-dasharray="2 2"/>
<rect x="201" y="1" width="100" height="100" stroke="#00111A" stroke-width="2" stroke-linejoin="round" stroke-dasharray="2 2"/>
<rect x="201" y="101" width="100" height="100" stroke="#00111A" stroke-width="2" stroke-linejoin="round" stroke-dasharray="2 2"/>
<rect x="201" y="201" width="100" height="100" stroke="#00111A" stroke-width="2" stroke-linejoin="round" stroke-dasharray="2 2"/>
<rect x="201" y="301" width="100" height="100" stroke="#00111A" stroke-width="2" stroke-linejoin="round" stroke-dasharray="2 2"/>
<rect x="201" y="401" width="100" height="100" stroke="#00111A" stroke-width="2" stroke-linejoin="round" stroke-dasharray="2 2"/>
<rect x="301" y="1" width="100" height="100" stroke="#00111A" stroke-width="2" stroke-linejoin="round" stroke-dasharray="2 2"/>
<rect x="301" y="101" width="100" height="100" stroke="#00111A" stroke-width="2" stroke-linejoin="round" stroke-dasharray="2 2"/>
<rect x="301" y="201" width="100" height="100" stroke="#00111A" stroke-width="2" stroke-linejoin="round" stroke-dasharray="2 2"/>
<rect x="301" y="301" width="100" height="100" stroke="#00111A" stroke-width="2" stroke-linejoin="round" stroke-dasharray="2 2"/>
<rect x="301" y="401" width="100" height="100" stroke="#00111A" stroke-width="2" stroke-linejoin="round" stroke-dasharray="2 2"/>
<rect x="401" y="1" width="100" height="100" stroke="#00111A" stroke-width="2" stroke-linejoin="round" stroke-dasharray="2 2"/>
<rect x="401" y="101" width="100" height="100" stroke="#00111A" stroke-width="2" stroke-linejoin="round" stroke-dasharray="2 2"/>
<rect x="401" y="201" width="100" height="100" stroke="#00111A" stroke-width="2" stroke-linejoin="round" stroke-dasharray="2 2"/>
<rect x="401" y="301" width="100" height="100" stroke="#00111A" stroke-width="2" stroke-linejoin="round" stroke-dasharray="2 2"/>
<rect x="401" y="401" width="100" height="100" stroke="#00111A" stroke-width="2" stroke-linejoin="round" stroke-dasharray="2 2"/>
<rect x="501" y="1" width="100" height="100" stroke="#00111A" stroke-width="2" stroke-linejoin="round" stroke-dasharray="2 2"/>
<rect x="501" y="101" width="100" height="100" stroke="#00111A" stroke-width="2" stroke-linejoin="round" stroke-dasharray="2 2"/>
<rect x="501" y="201" width="100" height="100" stroke="#00111A" stroke-width="2" stroke-linejoin="round" stroke-dasharray="2 2"/>
<rect x="501" y="301" width="100" height="100" stroke="#00111A" stroke-width="2" stroke-linejoin="round" stroke-dasharray="2 2"/>
<rect x="501" y="401" width="100" height="100" stroke="#00111A" stroke-width="2" stroke-linejoin="round" stroke-dasharray="2 2"/>
<rect x="601" y="1" width="100" height="100" stroke="#00111A" stroke-width="2" stroke-linejoin="round" stroke-dasharray="2 2"/>
<rect x="601" y="101" width="100" height="100" stroke="#00111A" stroke-width="2" stroke-linejoin="round" stroke-dasharray="2 2"/>
<rect x="601" y="201" width="100" height="100" stroke="#00111A" stroke-width="2" stroke-linejoin="round" stroke-dasharray="2 2"/>
<rect x="601" y="301" width="100" height="100" stroke="#00111A" stroke-width="2" stroke-linejoin="round" stroke-dasharray="2 2"/>
<rect x="601" y="401" width="100" height="100" stroke="#00111A" stroke-width="2" stroke-linejoin="round" stroke-dasharray="2 2"/>
<rect x="457.979" y="238.975" width="200" height="100" rx="25" transform="rotate(7.12958 457.979 238.975)" fill="#F4A258"/>
<path d="M474.716 293.474L478.082 266.563L482.755 267.148L480.878 282.155L480.916 281.571C481.556 280.704 482.389 280.046 483.415 279.597C484.444 279.125 485.652 278.976 487.039 279.15C488.449 279.326 489.567 279.893 490.394 280.851C491.247 281.789 491.602 282.919 491.46 284.241L490.065 295.394L485.29 294.797L486.463 285.417C486.523 284.755 486.406 284.209 486.113 283.78C485.846 283.331 485.326 283.058 484.553 282.961C483.825 282.87 483.159 283.029 482.553 283.439C481.948 283.848 481.446 284.443 481.048 285.225C480.65 286.006 480.384 286.932 480.251 288L479.491 294.071L474.716 293.474ZM496.832 281.102L501.607 281.699L499.743 296.604L494.968 296.007L496.832 281.102ZM497.391 275.803C497.479 275.098 497.824 274.552 498.427 274.166C499.052 273.782 499.683 273.63 500.32 273.71C500.957 273.789 501.508 274.089 501.974 274.609C502.463 275.132 502.663 275.746 502.575 276.451C502.487 277.156 502.142 277.702 501.539 278.088C500.962 278.455 500.355 278.598 499.719 278.519C499.082 278.439 498.506 278.148 497.992 277.645C497.503 277.122 497.303 276.508 497.391 275.803ZM510.822 282.852L510.754 287L510.728 286.374C511.271 285.541 511.956 284.865 512.783 284.344C513.613 283.802 514.413 283.405 515.184 283.155C515.977 282.908 516.566 282.809 516.953 282.857L516.117 287.602C515.02 287.326 514.042 287.389 513.184 287.789C512.325 288.19 511.629 288.773 511.095 289.537C510.56 290.302 510.239 291.116 510.131 291.98L509.401 297.813L504.66 297.22L506.525 282.315L510.822 282.852ZM525.265 300.213C523.446 299.985 521.943 299.451 520.755 298.609C519.59 297.771 518.753 296.707 518.244 295.42C517.735 294.132 517.579 292.704 517.775 291.135C517.963 289.634 518.519 288.33 519.443 287.221C520.366 286.113 521.52 285.287 522.905 284.744C524.292 284.179 525.781 283.996 527.373 284.195C529.51 284.462 531.183 285.306 532.391 286.728C533.624 288.129 534.299 290.026 534.415 292.42L522.358 294.653L521.625 291.928L530.37 290.147L529.325 290.467C529.217 289.853 528.951 289.3 528.528 288.808C528.13 288.296 527.465 287.982 526.533 287.866C525.828 287.777 525.181 287.87 524.593 288.143C524.03 288.396 523.562 288.81 523.19 289.387C522.843 289.944 522.619 290.632 522.516 291.451C522.4 292.383 522.472 293.189 522.733 293.868C522.998 294.525 523.406 295.049 523.957 295.442C524.508 295.834 525.148 296.076 525.875 296.167C526.398 296.232 526.91 296.204 527.41 296.081C527.933 295.962 528.452 295.784 528.966 295.549L530.637 299.36C529.785 299.715 528.875 299.971 527.909 300.127C526.965 300.287 526.084 300.315 525.265 300.213ZM557.665 304.265C556.414 304.109 555.383 303.772 554.57 303.254C553.783 302.717 553.113 302.068 552.562 301.306L553.065 300.33L552.703 303.229L547.927 302.631L551.293 275.721L556.034 276.314L554.213 290.878L554.405 289.343C555.059 288.916 555.896 288.594 556.916 288.375C557.936 288.156 559.072 288.125 560.323 288.282C561.619 288.444 562.763 288.899 563.755 289.646C564.746 290.394 565.487 291.399 565.976 292.661C566.49 293.903 566.642 295.365 566.431 297.048C566.221 298.73 565.675 300.14 564.794 301.277C563.935 302.417 562.874 303.242 561.609 303.754C560.344 304.265 559.029 304.436 557.665 304.265ZM557.111 300.108C557.816 300.196 558.487 300.095 559.124 299.806C559.783 299.519 560.334 299.08 560.778 298.488C561.221 297.897 561.493 297.204 561.592 296.408C561.692 295.612 561.598 294.884 561.311 294.225C561.024 293.565 560.595 293.027 560.024 292.609C559.478 292.171 558.853 291.908 558.148 291.82C557.534 291.743 556.941 291.773 556.37 291.909C555.824 292.026 555.335 292.242 554.903 292.557C554.497 292.853 554.16 293.238 553.893 293.713L553.436 297.362C553.647 297.897 553.912 298.357 554.233 298.744C554.58 299.11 554.992 299.416 555.47 299.66C555.95 299.882 556.497 300.031 557.111 300.108ZM575.436 306.488C574.049 306.314 572.821 305.884 571.752 305.196C570.709 304.488 569.931 303.513 569.416 302.271C568.902 301.029 568.757 299.509 568.982 297.713C569.192 296.031 569.715 294.618 570.551 293.475C571.387 292.333 572.403 291.502 573.6 290.981C574.799 290.439 576.024 290.246 577.275 290.402C578.753 290.587 579.836 290.976 580.523 291.57C581.237 292.145 581.807 292.759 582.233 293.412L581.956 293.967L582.672 291.839L587.106 292.394L585.242 307.299L580.467 306.701L580.872 303.461L581.119 304.531C581.074 304.526 580.92 304.645 580.659 304.89C580.4 305.111 580.021 305.375 579.52 305.682C579.046 305.969 578.463 306.197 577.772 306.364C577.101 306.558 576.323 306.599 575.436 306.488ZM577.287 302.77C577.855 302.841 578.377 302.826 578.851 302.724C579.329 302.598 579.758 302.398 580.139 302.122C580.523 301.824 580.871 301.44 581.183 300.971L581.64 297.322C581.521 296.799 581.3 296.344 580.979 295.958C580.661 295.548 580.263 295.221 579.786 294.977C579.311 294.71 578.767 294.538 578.153 294.461C577.471 294.376 576.811 294.478 576.174 294.768C575.563 295.038 575.049 295.458 574.631 296.03C574.213 296.601 573.954 297.284 573.855 298.08C573.755 298.876 573.848 299.615 574.132 300.297C574.416 300.979 574.831 301.539 575.377 301.977C575.945 302.418 576.582 302.682 577.287 302.77ZM596.358 293.551L596.4 296.258L596.362 296.011C597.002 295.144 597.835 294.486 598.861 294.037C599.89 293.566 601.098 293.416 602.485 293.59C603.894 293.766 605.013 294.333 605.84 295.291C606.692 296.229 607.048 297.359 606.905 298.681L605.51 309.834L600.735 309.237L601.909 299.857C601.968 299.195 601.852 298.649 601.559 298.22C601.292 297.771 600.772 297.498 599.999 297.401C599.271 297.31 598.605 297.469 597.999 297.879C597.394 298.288 596.892 298.883 596.494 299.665C596.096 300.446 595.83 301.372 595.696 302.44L594.937 308.511L590.162 307.914L592.026 293.009L596.358 293.551ZM616.433 311.616C615.046 311.442 613.847 310.969 612.835 310.196C611.826 309.4 611.08 308.348 610.597 307.041C610.137 305.736 610.012 304.242 610.222 302.56C610.433 300.877 610.953 299.487 611.783 298.39C612.613 297.293 613.658 296.512 614.917 296.046C616.176 295.58 617.556 295.44 619.057 295.628C620.012 295.748 620.903 296.009 621.73 296.413C622.58 296.819 623.262 297.366 623.776 298.054L623.588 299.555L625.41 284.991L630.151 285.584L626.785 312.495L622.01 311.898L622.373 308.999L622.62 310.069C621.767 310.609 620.835 311.046 619.823 311.382C618.814 311.694 617.684 311.772 616.433 311.616ZM618.506 307.787C619.142 307.867 619.709 307.857 620.207 307.758C620.73 307.638 621.193 307.442 621.597 307.169C622.026 306.877 622.408 306.497 622.744 306.031L623.2 302.382C623.081 301.859 622.849 301.403 622.505 301.013C622.187 300.604 621.766 300.274 621.243 300.024C620.746 299.754 620.179 299.579 619.542 299.499C618.837 299.411 618.155 299.511 617.496 299.798C616.862 300.065 616.325 300.483 615.884 301.051C615.444 301.619 615.173 302.302 615.074 303.097C614.974 303.893 615.067 304.632 615.351 305.314C615.635 305.997 616.05 306.557 616.596 306.994C617.164 307.435 617.801 307.699 618.506 307.787Z" fill="black"/>
<path d="M492.238 310.134C492.336 309.351 492.584 308.656 492.982 308.05C493.393 307.435 493.908 306.967 494.529 306.647C495.149 306.327 495.824 306.213 496.555 306.304C497.243 306.39 497.833 306.652 498.327 307.09C498.832 307.519 499.206 308.012 499.448 308.569L500.08 303.52L501.159 303.655L499.872 313.943C499.854 314.091 499.872 314.206 499.926 314.288C499.981 314.36 500.072 314.408 500.198 314.435L500.091 315.292C499.875 315.298 499.71 315.288 499.594 315.262C499.373 315.224 499.189 315.11 499.041 314.919C498.893 314.729 498.831 314.533 498.856 314.332L498.958 313.522C498.562 314.021 498.064 314.394 497.463 314.641C496.862 314.888 496.26 314.974 495.657 314.899C495.086 314.827 494.571 314.645 494.113 314.351C493.666 314.059 493.288 313.689 492.978 313.242C492.679 312.796 492.461 312.306 492.323 311.773C492.198 311.231 492.169 310.684 492.238 310.134ZM498.985 312.268L499.305 309.712C499.215 309.313 499.036 308.942 498.767 308.596C498.5 308.24 498.182 307.948 497.813 307.719C497.456 307.481 497.087 307.338 496.706 307.29C496.261 307.235 495.847 307.28 495.463 307.425C495.081 307.56 494.737 307.77 494.433 308.054C494.139 308.34 493.899 308.675 493.711 309.06C493.523 309.445 493.402 309.849 493.349 310.273C493.294 310.717 493.315 311.15 493.413 311.571C493.521 311.993 493.699 312.38 493.945 312.734C494.192 313.076 494.49 313.356 494.84 313.571C495.189 313.787 495.58 313.922 496.014 313.976C496.29 314.011 496.582 313.993 496.892 313.925C497.201 313.856 497.5 313.748 497.787 313.601C498.086 313.445 498.341 313.251 498.553 313.02C498.764 312.788 498.909 312.538 498.985 312.268ZM505.708 316.156C505.115 316.082 504.579 315.902 504.098 315.616C503.62 315.32 503.219 314.953 502.898 314.515C502.578 314.066 502.344 313.569 502.197 313.024C502.061 312.48 502.03 311.912 502.104 311.319C502.201 310.547 502.464 309.86 502.894 309.258C503.335 308.657 503.891 308.205 504.563 307.902C505.237 307.589 505.971 307.482 506.764 307.581C507.579 307.683 508.264 307.967 508.818 308.434C509.383 308.903 509.8 309.482 510.068 310.171C510.338 310.85 510.426 311.57 510.33 312.332C510.32 312.417 510.309 312.502 510.298 312.586C510.289 312.66 510.277 312.718 510.261 312.759L503.18 311.873C503.159 312.473 503.257 313.022 503.473 313.522C503.702 314.013 504.022 314.424 504.432 314.755C504.854 315.076 505.33 315.27 505.859 315.337C506.399 315.404 506.924 315.33 507.435 315.114C507.956 314.9 508.34 314.583 508.586 314.162L509.491 314.533C509.272 314.903 508.969 315.226 508.58 315.499C508.191 315.773 507.747 315.97 507.248 316.091C506.761 316.202 506.248 316.224 505.708 316.156ZM503.245 311.091L509.358 311.856C509.391 311.247 509.293 310.698 509.064 310.207C508.846 309.717 508.525 309.317 508.102 309.006C507.69 308.686 507.215 308.492 506.675 308.424C506.135 308.357 505.626 308.428 505.149 308.637C504.673 308.835 504.262 309.149 503.918 309.579C503.586 310 503.362 310.504 503.245 311.091ZM511.105 314.251C511.17 313.733 511.373 313.307 511.716 312.973C512.06 312.629 512.504 312.389 513.048 312.253C513.603 312.107 514.225 312.078 514.913 312.164C515.315 312.214 515.73 312.298 516.156 312.416C516.582 312.534 516.956 312.677 517.279 312.847L517.366 312.148C517.453 311.45 517.317 310.868 516.955 310.404C516.594 309.939 516.049 309.661 515.318 309.57C514.874 309.514 514.424 309.544 513.969 309.659C513.526 309.765 513.051 309.948 512.546 310.207L512.228 309.393C512.814 309.09 513.378 308.881 513.919 308.766C514.462 308.64 515.003 308.611 515.543 308.679C516.559 308.806 517.327 309.198 517.847 309.854C518.366 310.51 518.562 311.352 518.434 312.378L517.955 316.205C517.937 316.353 517.955 316.468 518.009 316.55C518.064 316.621 518.16 316.671 518.297 316.699L518.189 317.556C518.072 317.552 517.97 317.55 517.884 317.55C517.798 317.55 517.734 317.542 517.693 317.526C517.43 317.483 517.239 317.373 517.122 317.197C517.004 317.021 516.951 316.842 516.963 316.661L517.022 316.056C516.592 316.486 516.065 316.796 515.439 316.986C514.814 317.166 514.195 317.218 513.581 317.141C513.052 317.075 512.584 316.903 512.178 316.627C511.784 316.341 511.489 315.992 511.293 315.581C511.109 315.16 511.046 314.717 511.105 314.251ZM516.566 315.579C516.701 315.446 516.809 315.314 516.89 315.184C516.97 315.055 517.017 314.937 517.031 314.831L517.181 313.625C516.839 313.442 516.476 313.289 516.094 313.166C515.722 313.044 515.34 312.959 514.949 312.91C514.176 312.813 513.533 312.889 513.018 313.136C512.503 313.383 512.213 313.772 512.147 314.301C512.108 314.608 512.151 314.909 512.275 315.204C512.401 315.488 512.606 315.74 512.891 315.958C513.176 316.166 513.526 316.295 513.938 316.347C514.457 316.412 514.951 316.372 515.421 316.226C515.901 316.082 516.283 315.866 516.566 315.579ZM520.084 313.617C520.182 312.833 520.43 312.139 520.828 311.533C521.238 310.918 521.754 310.45 522.374 310.13C522.995 309.81 523.67 309.696 524.4 309.787C525.088 309.873 525.679 310.135 526.172 310.573C526.678 311.002 527.052 311.494 527.294 312.051L527.925 307.003L529.005 307.138L527.718 317.426C527.699 317.574 527.717 317.689 527.771 317.771C527.827 317.842 527.918 317.891 528.043 317.918L527.936 318.775C527.72 318.78 527.555 318.771 527.44 318.745C527.219 318.707 527.034 318.593 526.886 318.402C526.738 318.211 526.677 318.016 526.702 317.815L526.803 317.005C526.407 317.504 525.909 317.877 525.309 318.124C524.708 318.371 524.106 318.457 523.503 318.382C522.931 318.31 522.416 318.128 521.959 317.834C521.512 317.542 521.133 317.172 520.824 316.725C520.525 316.279 520.306 315.789 520.169 315.256C520.043 314.714 520.015 314.167 520.084 313.617ZM526.831 315.751L527.151 313.195C527.061 312.796 526.881 312.425 526.613 312.079C526.346 311.723 526.028 311.431 525.658 311.202C525.301 310.964 524.932 310.821 524.551 310.773C524.107 310.718 523.692 310.763 523.309 310.908C522.926 311.043 522.583 311.253 522.279 311.537C521.985 311.823 521.744 312.158 521.556 312.543C521.368 312.928 521.248 313.332 521.195 313.756C521.139 314.2 521.16 314.633 521.258 315.054C521.367 315.476 521.544 315.863 521.79 316.217C522.037 316.559 522.336 316.838 522.685 317.054C523.034 317.27 523.426 317.405 523.86 317.459C524.135 317.494 524.427 317.476 524.737 317.408C525.047 317.339 525.345 317.231 525.632 317.084C525.931 316.928 526.187 316.734 526.398 316.503C526.61 316.271 526.754 316.021 526.831 315.751ZM531.498 307.45L532.578 307.585L531.363 317.301C531.311 317.714 531.351 317.993 531.484 318.139C531.616 318.284 531.788 318.37 532 318.397C532.19 318.42 532.383 318.423 532.579 318.405C532.775 318.386 532.944 318.364 533.087 318.339L533.168 319.236C532.957 319.296 532.699 319.333 532.396 319.349C532.104 319.366 531.852 319.362 531.64 319.335C531.153 319.274 530.78 319.083 530.519 318.76C530.269 318.438 530.175 318.029 530.237 317.531L531.498 307.45ZM534.327 319.575L535.361 311.303L536.441 311.438L535.406 319.71L534.327 319.575ZM535.578 309.572L535.776 307.985L536.856 308.12L536.657 309.708L535.578 309.572ZM544.738 320.877L543.658 320.742L544.236 316.122C544.358 315.148 544.304 314.421 544.074 313.941C543.845 313.45 543.424 313.166 542.81 313.089C542.386 313.036 541.955 313.09 541.516 313.25C541.078 313.399 540.678 313.634 540.315 313.954C539.964 314.265 539.692 314.64 539.497 315.078L538.864 320.142L537.784 320.007L538.819 311.735L539.803 311.859L539.569 313.732C539.841 313.358 540.176 313.045 540.573 312.793C540.971 312.531 541.409 312.344 541.885 312.232C542.361 312.119 542.843 312.094 543.33 312.155C543.785 312.211 544.161 312.344 544.457 312.554C544.753 312.763 544.977 313.038 545.128 313.379C545.28 313.71 545.37 314.103 545.399 314.558C545.43 315.003 545.411 315.495 545.344 316.035L544.738 320.877ZM550.593 321.77C550 321.696 549.463 321.516 548.983 321.23C548.504 320.934 548.104 320.567 547.783 320.129C547.462 319.68 547.229 319.184 547.082 318.638C546.946 318.095 546.915 317.526 546.989 316.934C547.086 316.161 547.349 315.474 547.779 314.872C548.22 314.271 548.776 313.819 549.448 313.516C550.122 313.203 550.855 313.096 551.649 313.195C552.464 313.297 553.149 313.582 553.703 314.049C554.268 314.517 554.685 315.096 554.953 315.785C555.223 316.464 555.31 317.184 555.215 317.946C555.204 318.031 555.194 318.116 555.183 318.2C555.174 318.275 555.161 318.332 555.145 318.373L548.065 317.487C548.043 318.087 548.141 318.637 548.358 319.137C548.587 319.628 548.906 320.038 549.317 320.369C549.739 320.691 550.214 320.885 550.743 320.951C551.283 321.018 551.808 320.944 552.319 320.729C552.84 320.514 553.224 320.197 553.47 319.776L554.375 320.147C554.157 320.518 553.853 320.84 553.464 321.114C553.075 321.388 552.631 321.585 552.133 321.705C551.646 321.816 551.132 321.838 550.593 321.77ZM548.13 316.706L554.242 317.47C554.276 316.861 554.178 316.312 553.949 315.821C553.731 315.331 553.41 314.931 552.986 314.62C552.575 314.3 552.099 314.106 551.56 314.039C551.02 313.971 550.511 314.042 550.033 314.251C549.557 314.449 549.147 314.763 548.803 315.193C548.471 315.614 548.247 316.118 548.13 316.706ZM557.034 315.642L557.228 314.086L558.149 314.202L557.954 315.758L557.034 315.642ZM556.199 322.31L556.394 320.755L557.315 320.87L557.12 322.426L556.199 322.31ZM562.905 323.149C562.95 322.789 563.027 322.433 563.135 322.081C563.245 321.719 563.412 321.369 563.637 321.032C563.862 320.694 564.17 320.383 564.56 320.099C564.952 319.804 565.452 319.544 566.061 319.319C566.388 319.199 566.724 319.085 567.071 318.978C567.419 318.86 567.747 318.729 568.055 318.585C568.375 318.432 568.635 318.249 568.833 318.037C569.044 317.816 569.169 317.542 569.21 317.214C569.243 316.949 569.197 316.68 569.07 316.406C568.953 316.134 568.746 315.898 568.448 315.7C568.161 315.502 567.785 315.375 567.319 315.316C566.981 315.274 566.668 315.283 566.381 315.344C566.093 315.405 565.835 315.496 565.605 315.618C565.376 315.729 565.178 315.849 565.011 315.979C564.846 316.098 564.709 316.199 564.602 316.283L564.013 315.451C564.074 315.394 564.204 315.298 564.404 315.161C564.616 315.016 564.876 314.871 565.184 314.727C565.503 314.584 565.866 314.474 566.273 314.396C566.692 314.319 567.139 314.31 567.615 314.37C568.261 314.451 568.796 314.636 569.222 314.926C569.66 315.206 569.977 315.552 570.173 315.964C570.369 316.375 570.439 316.803 570.383 317.248C570.329 317.682 570.187 318.045 569.956 318.339C569.738 318.624 569.466 318.864 569.141 319.059C568.827 319.246 568.501 319.404 568.162 319.534C567.836 319.654 567.538 319.757 567.269 319.841C566.743 320.012 566.295 320.192 565.928 320.383C565.56 320.573 565.26 320.778 565.029 320.996C564.798 321.204 564.61 321.417 564.465 321.635C564.331 321.844 564.228 322.068 564.155 322.306L569.839 323.017L569.716 324.001L562.905 323.149ZM579.825 321.492C579.736 322.202 579.475 322.83 579.041 323.378C578.619 323.916 578.084 324.322 577.437 324.596C576.791 324.87 576.091 324.96 575.34 324.866C574.557 324.768 573.881 324.495 573.314 324.048C572.758 323.591 572.35 322.987 572.089 322.234C571.829 321.481 571.759 320.618 571.881 319.644C572.073 318.109 572.406 316.866 572.88 315.915C573.355 314.953 573.936 314.263 574.622 313.843C575.309 313.424 576.065 313.266 576.891 313.369C577.642 313.463 578.29 313.738 578.835 314.193C579.382 314.638 579.768 315.202 579.994 315.886L579.216 316.434C579.062 315.866 578.761 315.393 578.313 315.015C577.878 314.627 577.364 314.396 576.772 314.322C576.147 314.244 575.577 314.371 575.063 314.705C574.548 315.038 574.113 315.553 573.757 316.251C573.411 316.949 573.174 317.817 573.044 318.854C573.255 318.461 573.532 318.131 573.878 317.862C574.223 317.594 574.613 317.4 575.047 317.283C575.491 317.166 575.952 317.138 576.428 317.198C577.148 317.288 577.777 317.538 578.317 317.95C578.868 318.363 579.276 318.881 579.542 319.506C579.819 320.121 579.914 320.783 579.825 321.492ZM575.491 323.917C576.02 323.983 576.523 323.912 577.001 323.703C577.479 323.494 577.878 323.184 578.198 322.772C578.529 322.362 578.727 321.892 578.793 321.363C578.859 320.834 578.783 320.33 578.563 319.851C578.354 319.373 578.044 318.974 577.632 318.654C577.221 318.334 576.751 318.141 576.221 318.075C575.682 318.007 575.168 318.077 574.679 318.285C574.202 318.494 573.803 318.804 573.483 319.216C573.164 319.616 572.971 320.087 572.903 320.627C572.837 321.156 572.908 321.659 573.117 322.137C573.337 322.616 573.652 323.015 574.064 323.336C574.475 323.656 574.951 323.85 575.491 323.917ZM590.606 315.166L581.703 325.5L580.48 325.347L589.384 315.013L590.606 315.166ZM595.877 326.274L595.753 327.258L590.371 326.585L590.495 325.6L592.749 325.882L593.599 319.087C593.498 319.204 593.338 319.323 593.119 319.446C592.899 319.569 592.649 319.678 592.368 319.772C592.099 319.867 591.831 319.941 591.567 319.994C591.302 320.047 591.064 320.06 590.852 320.034L590.983 318.986C591.227 319.016 591.5 318.981 591.803 318.879C592.106 318.777 592.401 318.653 592.688 318.506C592.975 318.359 593.219 318.217 593.418 318.081C593.618 317.945 593.732 317.852 593.76 317.801L594.871 317.94L593.86 326.021L595.877 326.274ZM605.523 323.755C605.407 324.687 605.128 325.496 604.688 326.182C604.259 326.86 603.717 327.367 603.062 327.704C602.407 328.042 601.699 328.163 600.937 328.067C600.175 327.972 599.518 327.68 598.966 327.192C598.425 326.705 598.025 326.08 597.766 325.317C597.508 324.543 597.437 323.69 597.554 322.758C597.67 321.827 597.948 321.023 598.387 320.347C598.828 319.661 599.37 319.148 600.015 318.809C600.671 318.462 601.38 318.335 602.142 318.431C602.904 318.526 603.561 318.823 604.111 319.322C604.663 319.81 605.062 320.44 605.309 321.213C605.569 321.977 605.64 322.824 605.523 323.755ZM604.428 323.618C604.522 322.867 604.483 322.19 604.311 321.588C604.139 320.986 603.856 320.499 603.462 320.127C603.069 319.745 602.587 319.518 602.015 319.447C601.444 319.375 600.92 319.476 600.445 319.75C599.972 320.013 599.572 320.415 599.247 320.955C598.932 321.496 598.727 322.142 598.633 322.894C598.539 323.645 598.578 324.322 598.75 324.924C598.933 325.527 599.221 326.015 599.615 326.386C600.009 326.758 600.492 326.98 601.064 327.051C601.635 327.123 602.158 327.027 602.632 326.764C603.107 326.49 603.501 326.088 603.815 325.557C604.13 325.016 604.334 324.37 604.428 323.618Z" fill="black"/>
<circle cx="636" cy="357" r="15" fill="#013C5A"/>
<rect x="440" y="255.568" width="60" height="20" rx="10" transform="rotate(-34.0188 440 255.568)" fill="#E15753"/>
<rect x="51.0059" y="64" width="200" height="100" rx="25" fill="#20D28B"/>
<path d="M85.6898 116.414C84.7961 116.414 83.9139 116.254 83.0431 115.933C82.1952 115.589 81.4849 115.108 80.912 114.489L81.0496 113.08L81.049 123.22L76.2711 123.22L76.2725 100.637L80.3973 100.637L81.0846 103.559L80.7065 102.527C81.4857 101.863 82.3565 101.313 83.319 100.878C84.2815 100.442 85.3929 100.225 86.6532 100.225C88.0511 100.225 89.3 100.557 90.3999 101.222C91.4998 101.863 92.359 102.803 92.9777 104.041C93.6192 105.255 93.94 106.722 93.9399 108.44C93.9398 110.136 93.5845 111.58 92.874 112.771C92.1636 113.963 91.1896 114.868 89.9521 115.487C88.7147 116.105 87.2939 116.415 85.6898 116.414ZM84.7276 112.633C85.5067 112.633 86.2171 112.462 86.8588 112.118C87.5233 111.774 88.0504 111.293 88.44 110.674C88.8525 110.033 89.0588 109.311 89.0589 108.509C89.0589 107.661 88.8756 106.928 88.509 106.309C88.1653 105.667 87.6841 105.175 87.0654 104.831C86.4697 104.464 85.8051 104.281 85.0718 104.281C84.4302 104.281 83.8573 104.372 83.3531 104.556C82.8719 104.716 82.4365 104.968 82.0469 105.312C81.6803 105.632 81.3594 106.045 81.0844 106.549L81.0842 110.227C81.2675 110.708 81.531 111.132 81.8747 111.499C82.2184 111.866 82.6308 112.152 83.1121 112.358C83.6162 112.542 84.1547 112.633 84.7276 112.633ZM104.046 116.416C102.648 116.415 101.376 116.14 100.231 115.59C99.1077 115.017 98.2141 114.147 97.5496 112.978C96.8851 111.809 96.5529 110.32 96.553 108.509C96.5531 106.814 96.8969 105.347 97.5845 104.11C98.272 102.872 99.1772 101.921 100.3 101.257C101.423 100.569 102.615 100.226 103.875 100.226C105.365 100.226 106.487 100.478 107.244 100.982C108.023 101.463 108.664 102.002 109.168 102.598L108.962 103.182L109.409 100.982L113.878 100.983L113.877 116.004L109.064 116.003L109.065 112.738L109.443 113.769C109.397 113.769 109.259 113.907 109.03 114.182C108.801 114.434 108.457 114.743 107.999 115.11C107.563 115.453 107.014 115.751 106.349 116.003C105.707 116.278 104.94 116.416 104.046 116.416ZM105.421 112.497C105.994 112.497 106.51 112.417 106.968 112.257C107.426 112.073 107.827 111.821 108.171 111.5C108.515 111.157 108.813 110.733 109.065 110.229L109.065 106.551C108.882 106.047 108.607 105.623 108.24 105.279C107.873 104.912 107.438 104.637 106.934 104.454C106.43 104.248 105.868 104.144 105.25 104.144C104.562 104.144 103.921 104.328 103.325 104.694C102.752 105.038 102.294 105.519 101.95 106.138C101.606 106.757 101.434 107.467 101.434 108.269C101.434 109.071 101.617 109.793 101.984 110.435C102.35 111.076 102.832 111.58 103.427 111.947C104.046 112.314 104.711 112.497 105.421 112.497ZM120.038 123.222L130.042 100.984L134.373 100.984L124.678 123.223L120.038 123.222ZM124.06 116.073L116.705 100.983L122.102 100.983L127.772 113.667L124.06 116.073ZM152.707 100.985L153.153 105.11L153.05 104.491C153.486 103.597 154.082 102.841 154.838 102.223C155.594 101.581 156.339 101.088 157.072 100.745C157.828 100.401 158.401 100.229 158.791 100.229L158.55 105.041C157.427 104.904 156.465 105.087 155.663 105.591C154.86 106.095 154.242 106.76 153.806 107.585C153.371 108.41 153.153 109.257 153.153 110.128L153.153 116.006L148.375 116.006L148.376 100.985L152.707 100.985ZM169.192 116.42C167.359 116.419 165.801 116.076 164.517 115.388C163.257 114.7 162.295 113.749 161.63 112.535C160.966 111.32 160.633 109.922 160.634 108.341C160.634 106.829 161.023 105.465 161.803 104.251C162.582 103.036 163.624 102.074 164.931 101.364C166.237 100.631 167.692 100.264 169.296 100.264C171.45 100.264 173.215 100.895 174.589 102.155C175.987 103.392 176.892 105.191 177.305 107.552L165.618 111.263L164.552 108.651L173.008 105.798L172.011 106.245C171.828 105.649 171.496 105.134 171.014 104.698C170.556 104.24 169.857 104.011 168.918 104.011C168.207 104.011 167.577 104.183 167.027 104.526C166.5 104.847 166.088 105.317 165.79 105.935C165.515 106.531 165.377 107.242 165.377 108.067C165.377 109.006 165.549 109.797 165.893 110.438C166.236 111.057 166.706 111.527 167.302 111.848C167.898 112.169 168.562 112.329 169.295 112.329C169.822 112.329 170.327 112.238 170.808 112.054C171.312 111.871 171.805 111.63 172.286 111.332L174.417 114.907C173.615 115.366 172.744 115.732 171.804 116.007C170.888 116.282 170.017 116.42 169.192 116.42ZM185.167 100.987L185.545 103.668L185.477 103.427C186.004 102.488 186.748 101.732 187.711 101.159C188.673 100.563 189.854 100.265 191.251 100.265C192.672 100.266 193.852 100.69 194.792 101.537C195.754 102.362 196.247 103.44 196.27 104.769L196.269 116.009L191.457 116.008L191.457 106.556C191.434 105.891 191.251 105.364 190.907 104.975C190.587 104.562 190.037 104.356 189.258 104.356C188.524 104.356 187.883 104.596 187.333 105.077C186.783 105.559 186.359 106.212 186.061 107.037C185.763 107.862 185.614 108.813 185.614 109.89L185.613 116.008L180.801 116.008L180.802 100.987L185.167 100.987ZM202.621 94.3883L207.433 94.3886L207.433 100.92L211.076 100.92L211.076 104.666L207.432 104.666L207.432 116.009L202.619 116.009L202.62 104.666L200.283 104.666L200.283 100.919L202.62 100.919L202.621 94.3883ZM217.144 109.238L217.145 107.417C217.145 106.271 217.282 105.32 217.557 104.564C217.855 103.785 218.222 103.12 218.657 102.57C219.116 102.02 219.574 101.528 220.032 101.092C220.651 100.519 221.201 99.9579 221.682 99.408C222.164 98.8351 222.404 98.0904 222.404 97.1737C222.404 96.6696 222.278 96.2457 222.026 95.9019C221.774 95.5582 221.465 95.2946 221.098 95.1113C220.754 94.905 220.411 94.8019 220.067 94.8018C219.402 94.8018 218.841 94.9622 218.383 95.283C217.947 95.5808 217.581 95.9704 217.283 96.4516C217.008 96.9328 216.767 97.4369 216.561 97.964L212.608 96.1076C212.745 95.6951 212.986 95.1681 213.33 94.5265C213.674 93.8848 214.155 93.2432 214.774 92.6016C215.415 91.96 216.206 91.4216 217.146 90.9862C218.108 90.5509 219.254 90.3333 220.583 90.3334C221.889 90.3334 223.058 90.5627 224.089 91.021C225.143 91.4565 225.979 92.144 226.598 93.0836C227.217 94.0002 227.526 95.2148 227.526 96.7272C227.526 97.9875 227.354 99.0073 227.01 99.7864C226.666 100.565 226.242 101.23 225.738 101.78C225.234 102.307 224.73 102.834 224.226 103.361C223.836 103.751 223.458 104.186 223.091 104.667C222.748 105.125 222.472 105.664 222.266 106.283C222.06 106.901 221.957 107.646 221.957 108.517L221.957 109.239L217.144 109.238ZM219.55 116.491C218.725 116.491 218.049 116.274 217.522 115.838C216.995 115.38 216.732 114.784 216.732 114.051C216.732 113.34 216.995 112.744 217.522 112.263C218.072 111.782 218.748 111.542 219.55 111.542C220.352 111.542 221.006 111.782 221.51 112.264C222.037 112.745 222.3 113.341 222.3 114.051C222.3 114.784 222.048 115.38 221.544 115.838C221.04 116.274 220.375 116.491 219.55 116.491Z" fill="black"/>
<path d="M93.8286 130.358C93.8287 129.569 93.9887 128.849 94.3087 128.199C94.6395 127.537 95.0928 127.009 95.6688 126.615C96.2449 126.22 96.9009 126.023 97.6369 126.023C98.3302 126.023 98.9489 126.209 99.4928 126.583C100.047 126.946 100.479 127.388 100.789 127.911L100.789 122.823L101.877 122.823L101.876 133.191C101.876 133.34 101.908 133.452 101.972 133.527C102.036 133.591 102.132 133.628 102.26 133.639L102.26 134.503C102.047 134.535 101.882 134.546 101.764 134.535C101.54 134.524 101.343 134.434 101.172 134.263C101.002 134.092 100.916 133.906 100.916 133.703L100.916 132.887C100.586 133.431 100.138 133.863 99.5724 134.183C99.007 134.503 98.4204 134.663 97.8124 134.663C97.2364 134.663 96.703 134.545 96.2124 134.311C95.7324 134.076 95.3111 133.756 94.9484 133.351C94.5965 132.945 94.3192 132.487 94.1165 131.974C93.9245 131.452 93.8286 130.913 93.8286 130.358ZM100.789 131.639L100.789 129.063C100.65 128.679 100.426 128.332 100.117 128.023C99.8074 127.703 99.4555 127.452 99.0608 127.271C98.6768 127.079 98.2928 126.983 97.9088 126.983C97.4608 126.983 97.0555 127.079 96.6928 127.271C96.3301 127.452 96.0154 127.703 95.7488 128.023C95.4927 128.343 95.2954 128.705 95.1567 129.111C95.018 129.516 94.9486 129.932 94.9486 130.359C94.9486 130.807 95.0232 131.233 95.1725 131.639C95.3325 132.044 95.5565 132.407 95.8445 132.727C96.1325 133.036 96.4631 133.276 96.8364 133.447C97.2098 133.617 97.6151 133.703 98.0524 133.703C98.3297 133.703 98.6177 133.649 98.9164 133.543C99.2151 133.436 99.4978 133.292 99.7644 133.111C100.042 132.919 100.271 132.695 100.452 132.439C100.634 132.183 100.746 131.916 100.789 131.639ZM107.941 134.663C107.344 134.663 106.789 134.551 106.277 134.327C105.766 134.093 105.323 133.778 104.95 133.383C104.576 132.978 104.283 132.514 104.07 131.991C103.867 131.468 103.766 130.908 103.766 130.311C103.766 129.532 103.942 128.818 104.294 128.167C104.657 127.516 105.153 126.999 105.782 126.615C106.411 126.221 107.126 126.023 107.926 126.023C108.747 126.023 109.462 126.221 110.07 126.615C110.689 127.01 111.174 127.533 111.526 128.184C111.878 128.824 112.054 129.528 112.054 130.296C112.054 130.381 112.054 130.466 112.054 130.552C112.054 130.626 112.048 130.685 112.038 130.728L104.902 130.727C104.955 131.324 105.12 131.858 105.398 132.327C105.686 132.786 106.054 133.154 106.502 133.431C106.96 133.698 107.456 133.831 107.99 133.831C108.534 133.831 109.046 133.693 109.526 133.415C110.016 133.138 110.358 132.775 110.55 132.327L111.494 132.584C111.323 132.978 111.062 133.336 110.71 133.655C110.358 133.975 109.942 134.226 109.461 134.407C108.992 134.578 108.485 134.663 107.941 134.663ZM104.87 129.943L111.03 129.944C110.987 129.336 110.822 128.802 110.534 128.343C110.257 127.885 109.889 127.527 109.43 127.271C108.982 127.005 108.486 126.871 107.942 126.871C107.398 126.871 106.902 127.005 106.454 127.271C106.006 127.527 105.638 127.89 105.35 128.359C105.072 128.818 104.912 129.346 104.87 129.943ZM113.06 132.104C113.06 131.581 113.21 131.133 113.508 130.76C113.807 130.376 114.218 130.082 114.74 129.88C115.274 129.666 115.887 129.56 116.58 129.56C116.986 129.56 117.407 129.592 117.844 129.656C118.282 129.72 118.671 129.816 119.012 129.944L119.012 129.24C119.012 128.536 118.805 127.976 118.389 127.56C117.973 127.144 117.397 126.936 116.661 126.936C116.213 126.936 115.77 127.021 115.333 127.192C114.906 127.352 114.458 127.592 113.989 127.912L113.573 127.144C114.117 126.77 114.65 126.493 115.173 126.312C115.695 126.12 116.229 126.024 116.773 126.024C117.797 126.024 118.607 126.317 119.205 126.904C119.802 127.491 120.1 128.301 120.1 129.336L120.1 133.192C120.1 133.341 120.132 133.453 120.196 133.528C120.26 133.592 120.362 133.629 120.5 133.64L120.5 134.504C120.383 134.515 120.281 134.525 120.196 134.536C120.111 134.547 120.047 134.547 120.004 134.536C119.737 134.525 119.535 134.44 119.396 134.28C119.257 134.12 119.183 133.949 119.172 133.768L119.156 133.16C118.783 133.64 118.297 134.013 117.7 134.28C117.103 134.536 116.495 134.664 115.876 134.664C115.343 134.664 114.857 134.552 114.42 134.328C113.993 134.093 113.657 133.784 113.412 133.4C113.178 133.005 113.06 132.573 113.06 132.104ZM118.644 132.744C118.762 132.595 118.852 132.451 118.916 132.312C118.98 132.173 119.012 132.051 119.012 131.944L119.012 130.728C118.65 130.589 118.271 130.483 117.876 130.408C117.492 130.333 117.103 130.296 116.708 130.296C115.93 130.296 115.3 130.45 114.82 130.76C114.34 131.069 114.1 131.49 114.1 132.024C114.1 132.333 114.18 132.626 114.34 132.904C114.5 133.17 114.735 133.394 115.044 133.576C115.353 133.746 115.716 133.832 116.132 133.832C116.655 133.832 117.14 133.731 117.588 133.528C118.047 133.325 118.399 133.064 118.644 132.744ZM121.891 130.36C121.891 129.571 122.051 128.851 122.371 128.2C122.702 127.539 123.155 127.011 123.731 126.616C124.307 126.222 124.963 126.024 125.699 126.024C126.393 126.024 127.011 126.211 127.555 126.585C128.11 126.947 128.542 127.39 128.851 127.913L128.852 122.825L129.94 122.825L129.939 133.193C129.939 133.342 129.971 133.454 130.035 133.529C130.099 133.593 130.195 133.63 130.323 133.641L130.323 134.505C130.11 134.537 129.944 134.547 129.827 134.537C129.603 134.526 129.406 134.435 129.235 134.265C129.064 134.094 128.979 133.907 128.979 133.705L128.979 132.889C128.648 133.433 128.2 133.865 127.635 134.185C127.07 134.504 126.483 134.664 125.875 134.664C125.299 134.664 124.766 134.547 124.275 134.312C123.795 134.078 123.374 133.758 123.011 133.352C122.659 132.947 122.382 132.488 122.179 131.976C121.987 131.454 121.891 130.915 121.891 130.36ZM128.851 131.641L128.851 129.065C128.713 128.681 128.489 128.334 128.179 128.025C127.87 127.705 127.518 127.454 127.123 127.272C126.739 127.08 126.355 126.984 125.971 126.984C125.523 126.984 125.118 127.08 124.755 127.272C124.393 127.454 124.078 127.704 123.811 128.024C123.555 128.344 123.358 128.707 123.219 129.112C123.08 129.518 123.011 129.934 123.011 130.36C123.011 130.808 123.086 131.235 123.235 131.64C123.395 132.046 123.619 132.408 123.907 132.728C124.195 133.038 124.526 133.278 124.899 133.448C125.272 133.619 125.678 133.704 126.115 133.704C126.392 133.704 126.68 133.651 126.979 133.544C127.278 133.438 127.56 133.294 127.827 133.113C128.104 132.921 128.334 132.697 128.515 132.441C128.696 132.185 128.808 131.918 128.851 131.641ZM132.453 122.825L133.541 122.825L133.54 132.617C133.54 133.033 133.615 133.305 133.764 133.433C133.913 133.561 134.095 133.625 134.308 133.625C134.5 133.625 134.692 133.604 134.884 133.561C135.076 133.518 135.241 133.476 135.38 133.433L135.572 134.313C135.369 134.398 135.119 134.468 134.82 134.521C134.532 134.574 134.281 134.601 134.068 134.601C133.577 134.601 133.183 134.457 132.884 134.169C132.596 133.881 132.452 133.486 132.452 132.985L132.453 122.825ZM136.763 134.505L136.764 126.169L137.852 126.169L137.851 134.505L136.763 134.505ZM136.764 124.425L136.764 122.825L137.852 122.825L137.852 124.425L136.764 124.425ZM147.256 134.506L146.168 134.506L146.168 129.85C146.168 128.868 146.024 128.154 145.736 127.706C145.448 127.247 144.995 127.018 144.376 127.018C143.95 127.018 143.528 127.124 143.112 127.337C142.696 127.54 142.328 127.823 142.008 128.185C141.699 128.537 141.475 128.943 141.336 129.401L141.336 134.505L140.248 134.505L140.248 126.169L141.24 126.169L141.24 128.057C141.464 127.652 141.758 127.3 142.12 127.001C142.483 126.692 142.894 126.452 143.352 126.281C143.811 126.111 144.286 126.026 144.776 126.026C145.235 126.026 145.624 126.111 145.944 126.282C146.264 126.452 146.52 126.698 146.712 127.018C146.904 127.327 147.043 127.706 147.128 128.154C147.213 128.591 147.256 129.082 147.256 129.626L147.256 134.506ZM153.176 134.666C152.579 134.666 152.024 134.554 151.512 134.33C151 134.095 150.557 133.781 150.184 133.386C149.811 132.981 149.517 132.517 149.304 131.994C149.101 131.471 149 130.911 149 130.314C149 129.535 149.176 128.82 149.528 128.17C149.891 127.519 150.387 127.002 151.016 126.618C151.646 126.223 152.36 126.026 153.16 126.026C153.982 126.026 154.696 126.223 155.304 126.618C155.923 127.013 156.408 127.536 156.76 128.186C157.112 128.826 157.288 129.53 157.288 130.298C157.288 130.384 157.288 130.469 157.288 130.554C157.288 130.629 157.283 130.688 157.272 130.73L150.136 130.73C150.189 131.327 150.355 131.861 150.632 132.33C150.92 132.789 151.288 133.157 151.736 133.434C152.195 133.701 152.691 133.834 153.224 133.834C153.768 133.834 154.28 133.695 154.76 133.418C155.251 133.141 155.592 132.778 155.784 132.33L156.728 132.586C156.557 132.981 156.296 133.338 155.944 133.658C155.592 133.978 155.176 134.229 154.696 134.41C154.227 134.581 153.72 134.666 153.176 134.666ZM150.104 129.946L156.264 129.946C156.222 129.338 156.056 128.805 155.768 128.346C155.491 127.888 155.123 127.53 154.664 127.274C154.216 127.007 153.72 126.874 153.176 126.874C152.632 126.874 152.136 127.007 151.688 127.274C151.24 127.53 150.872 127.893 150.584 128.362C150.307 128.821 150.147 129.349 150.104 129.946ZM158.807 127.786L158.807 126.218L159.735 126.218L159.735 127.786L158.807 127.786ZM158.806 134.506L158.807 132.938L159.735 132.938L159.734 134.506L158.806 134.506ZM165.564 134.507C165.564 134.144 165.596 133.781 165.66 133.419C165.724 133.045 165.847 132.678 166.028 132.315C166.21 131.952 166.476 131.606 166.828 131.275C167.18 130.934 167.644 130.614 168.22 130.315C168.53 130.155 168.85 130 169.181 129.851C169.511 129.691 169.821 129.52 170.109 129.339C170.407 129.147 170.642 128.934 170.813 128.699C170.994 128.454 171.085 128.166 171.085 127.835C171.085 127.568 171.005 127.307 170.845 127.051C170.695 126.795 170.461 126.587 170.141 126.427C169.831 126.267 169.442 126.187 168.973 126.187C168.631 126.187 168.322 126.235 168.045 126.331C167.767 126.427 167.522 126.55 167.309 126.699C167.095 126.838 166.914 126.982 166.765 127.131C166.615 127.27 166.493 127.387 166.397 127.483L165.709 126.731C165.762 126.667 165.879 126.555 166.061 126.395C166.253 126.224 166.493 126.048 166.781 125.867C167.079 125.686 167.426 125.531 167.821 125.403C168.226 125.275 168.669 125.211 169.149 125.211C169.799 125.211 170.354 125.328 170.813 125.563C171.282 125.787 171.639 126.091 171.885 126.475C172.13 126.859 172.253 127.275 172.253 127.723C172.253 128.161 172.157 128.539 171.965 128.859C171.783 129.169 171.543 129.441 171.245 129.675C170.957 129.899 170.653 130.096 170.332 130.267C170.023 130.427 169.74 130.566 169.484 130.683C168.983 130.918 168.562 131.152 168.22 131.387C167.879 131.622 167.607 131.862 167.404 132.107C167.202 132.342 167.042 132.576 166.924 132.811C166.818 133.035 166.743 133.27 166.7 133.515L172.428 133.515L172.428 134.507L165.564 134.507ZM182.148 130.764C182.148 131.478 181.967 132.134 181.604 132.732C181.252 133.318 180.772 133.788 180.164 134.14C179.556 134.492 178.873 134.668 178.116 134.668C177.327 134.668 176.623 134.481 176.004 134.107C175.396 133.723 174.916 133.174 174.564 132.459C174.212 131.745 174.036 130.897 174.036 129.915C174.036 128.369 174.212 127.094 174.564 126.091C174.917 125.078 175.407 124.321 176.037 123.819C176.666 123.318 177.397 123.068 178.229 123.068C178.986 123.068 179.663 123.26 180.261 123.644C180.858 124.017 181.311 124.529 181.621 125.18L180.917 125.82C180.693 125.276 180.335 124.844 179.845 124.524C179.365 124.193 178.826 124.028 178.229 124.028C177.599 124.028 177.05 124.225 176.581 124.619C176.111 125.014 175.743 125.579 175.476 126.315C175.22 127.051 175.092 127.942 175.092 128.987C175.252 128.571 175.487 128.209 175.796 127.899C176.106 127.59 176.468 127.35 176.884 127.18C177.311 127.009 177.764 126.924 178.244 126.924C178.97 126.924 179.626 127.094 180.212 127.436C180.81 127.777 181.279 128.241 181.62 128.828C181.972 129.404 182.148 130.049 182.148 130.764ZM178.148 133.708C178.681 133.708 179.172 133.574 179.62 133.308C180.068 133.041 180.425 132.684 180.692 132.236C180.969 131.788 181.108 131.297 181.108 130.764C181.108 130.23 180.97 129.74 180.692 129.292C180.426 128.844 180.068 128.486 179.62 128.22C179.172 127.953 178.682 127.82 178.148 127.82C177.604 127.82 177.103 127.953 176.644 128.219C176.196 128.486 175.839 128.843 175.572 129.291C175.306 129.729 175.172 130.219 175.172 130.763C175.172 131.297 175.305 131.787 175.572 132.235C175.849 132.683 176.212 133.041 176.66 133.307C177.108 133.574 177.604 133.708 178.148 133.708ZM192.061 123.148L184.509 134.508L183.277 134.508L190.829 123.148L192.061 123.148ZM198.669 133.517L198.669 134.509L193.245 134.508L193.245 133.516L195.517 133.517L195.517 126.669C195.432 126.797 195.288 126.935 195.085 127.085C194.883 127.234 194.648 127.373 194.381 127.501C194.125 127.629 193.869 127.735 193.613 127.821C193.357 127.906 193.122 127.948 192.909 127.948L192.909 126.892C193.155 126.892 193.421 126.823 193.709 126.685C193.997 126.546 194.275 126.386 194.541 126.205C194.808 126.023 195.032 125.853 195.213 125.693C195.395 125.533 195.496 125.426 195.517 125.373L196.637 125.373L196.637 133.517L198.669 133.517ZM207.929 129.821C207.929 130.76 207.753 131.597 207.401 132.333C207.059 133.059 206.585 133.629 205.977 134.045C205.368 134.461 204.68 134.669 203.912 134.669C203.144 134.669 202.456 134.461 201.849 134.045C201.251 133.629 200.777 133.058 200.425 132.333C200.073 131.597 199.897 130.76 199.897 129.821C199.897 128.882 200.073 128.05 200.425 127.325C200.777 126.589 201.252 126.013 201.849 125.597C202.457 125.17 203.145 124.957 203.913 124.957C204.681 124.957 205.369 125.171 205.977 125.597C206.585 126.013 207.06 126.589 207.401 127.325C207.753 128.051 207.929 128.883 207.929 129.821ZM206.825 129.821C206.825 129.064 206.702 128.397 206.457 127.821C206.212 127.245 205.87 126.797 205.433 126.477C204.996 126.147 204.489 125.981 203.913 125.981C203.337 125.981 202.83 126.146 202.393 126.477C201.956 126.797 201.609 127.245 201.353 127.821C201.108 128.397 200.985 129.064 200.985 129.821C200.985 130.578 201.107 131.245 201.353 131.821C201.609 132.397 201.955 132.845 202.393 133.165C202.83 133.485 203.337 133.645 203.913 133.645C204.489 133.645 204.995 133.485 205.433 133.165C205.87 132.835 206.211 132.387 206.457 131.821C206.702 131.245 206.825 130.579 206.825 129.821Z" fill="black"/>
<rect x="42.7148" y="134" width="60" height="20" rx="10" transform="rotate(35.8556 42.7148 134)" fill="#013C5A"/>
<circle cx="236" cy="66" r="15" fill="#E15753"/>
<mask id="path-81-inside-1_551_670" fill="white">
<path d="M33 295C33 289.477 37.4772 285 43 285H233V315H43C37.4772 315 33 310.523 33 305V295Z"/>
</mask>
<path d="M33 295C33 289.477 37.4772 285 43 285H233V315H43C37.4772 315 33 310.523 33 305V295Z" fill="#D9D9D9"/>
<path d="M33 285H233H33ZM233 315H33H233ZM43 315C34.7157 315 28 308.284 28 300C28 291.716 34.7157 285 43 285C40.2386 285 38 289.477 38 295V305C38 310.523 40.2386 315 43 315ZM233 285V315V285Z" fill="#F4A258" mask="url(#path-81-inside-1_551_670)"/>
<mask id="path-83-inside-2_551_670" fill="white">
<path d="M33 335C33 329.477 37.4772 325 43 325H233V355H43C37.4772 355 33 350.523 33 345V335Z"/>
</mask>
<path d="M33 335C33 329.477 37.4772 325 43 325H233V355H43C37.4772 355 33 350.523 33 345V335Z" fill="#D9D9D9"/>
<path d="M33 325H233H33ZM233 355H33H233ZM43 355C34.7157 355 28 348.284 28 340C28 331.716 34.7157 325 43 325C40.2386 325 38 329.477 38 335V345C38 350.523 40.2386 355 43 355ZM233 325V355V325Z" fill="#20D28B" mask="url(#path-83-inside-2_551_670)"/>
<mask id="path-85-inside-3_551_670" fill="white">
<path d="M33 375C33 369.477 37.4772 365 43 365H233V395H43C37.4772 395 33 390.523 33 385V375Z"/>
</mask>
<path d="M33 375C33 369.477 37.4772 365 43 365H233V395H43C37.4772 395 33 390.523 33 385V375Z" fill="#D9D9D9"/>
<path d="M33 365H233H33ZM233 395H33H233ZM43 395C34.7157 395 28 388.284 28 380C28 371.716 34.7157 365 43 365C40.2386 365 38 369.477 38 375V385C38 390.523 40.2386 395 43 395ZM233 365V395V365Z" fill="#F4A258" mask="url(#path-85-inside-3_551_670)"/>
<mask id="path-87-inside-4_551_670" fill="white">
<path d="M33 415C33 409.477 37.4772 405 43 405H233V435H43C37.4772 435 33 430.523 33 425V415Z"/>
</mask>
<path d="M33 415C33 409.477 37.4772 405 43 405H233V435H43C37.4772 435 33 430.523 33 425V415Z" fill="#D9D9D9"/>
<path d="M33 405H233H33ZM233 435H33H233ZM43 435C34.7157 435 28 428.284 28 420C28 411.716 34.7157 405 43 405C40.2386 405 38 409.477 38 415V425C38 430.523 40.2386 435 43 435ZM233 405V435V405Z" fill="#E1322D" mask="url(#path-87-inside-4_551_670)"/>
<mask id="path-89-inside-5_551_670" fill="white">
<path d="M33 455C33 449.477 37.4772 445 43 445H233V475H43C37.4772 475 33 470.523 33 465V455Z"/>
</mask>
<path d="M33 455C33 449.477 37.4772 445 43 445H233V475H43C37.4772 475 33 470.523 33 465V455Z" fill="#D9D9D9"/>
<path d="M33 445H233H33ZM233 475H33H233ZM43 475C34.7157 475 28 468.284 28 460C28 451.716 34.7157 445 43 445C40.2386 445 38 449.477 38 455V465C38 470.523 40.2386 475 43 475ZM233 445V475V445Z" fill="#F4A258" mask="url(#path-89-inside-5_551_670)"/>
<circle cx="233" cy="285" r="14" stroke="#013C5A" stroke-width="2" stroke-linejoin="round"/>
<circle cx="233" cy="325" r="14" stroke="#013C5A" stroke-width="2" stroke-linejoin="round"/>
<circle cx="233" cy="365" r="14" stroke="#013C5A" stroke-width="2" stroke-linejoin="round"/>
<circle cx="233" cy="405" r="14" stroke="#013C5A" stroke-width="2" stroke-linejoin="round"/>
<circle cx="233" cy="445" r="14" stroke="#013C5A" stroke-width="2" stroke-linejoin="round"/>
<path d="M229.75 276.32H235.057V294H231.163V280.053H229.75V276.32Z" fill="#013C5A"/>
<path d="M226.667 334C227.769 332.88 228.827 331.804 229.84 330.773C230.853 329.724 231.76 328.72 232.56 327.76C233.378 326.782 234.018 325.84 234.48 324.933C234.96 324.027 235.2 323.147 235.2 322.293C235.2 321.92 235.129 321.582 234.987 321.28C234.862 320.978 234.675 320.72 234.427 320.507C234.195 320.293 233.911 320.133 233.573 320.027C233.253 319.902 232.889 319.84 232.48 319.84C232.071 319.84 231.707 319.902 231.387 320.027C231.067 320.133 230.8 320.284 230.587 320.48C230.373 320.676 230.204 320.889 230.08 321.12C229.973 321.351 229.92 321.591 229.92 321.84C229.92 322.409 230.009 322.916 230.187 323.36C230.382 323.787 230.64 324.169 230.96 324.507L228.587 326.667C228.071 326.418 227.627 326 227.253 325.413C226.898 324.827 226.622 324.213 226.427 323.573C226.249 322.916 226.16 322.373 226.16 321.947C226.16 320.969 226.427 320.036 226.96 319.147C227.511 318.258 228.302 317.529 229.333 316.96C230.382 316.391 231.653 316.107 233.147 316.107C234.373 316.107 235.44 316.382 236.347 316.933C237.253 317.484 237.955 318.213 238.453 319.12C238.969 320.009 239.227 320.96 239.227 321.973C239.227 322.773 239.102 323.547 238.853 324.293C238.604 325.04 238.258 325.778 237.813 326.507C237.387 327.218 236.898 327.929 236.347 328.64C235.795 329.333 235.227 330.044 234.64 330.773L232.88 330.267H239.44V334H226.667Z" fill="#013C5A"/>
<path d="M238.629 356.32L234.629 364L232.522 362.853C232.7 362.782 232.887 362.729 233.082 362.693C233.295 362.658 233.491 362.64 233.669 362.64C234.291 362.622 234.913 362.693 235.535 362.853C236.158 363.013 236.718 363.298 237.215 363.707C237.731 364.116 238.14 364.676 238.442 365.387C238.762 366.098 238.922 367.004 238.922 368.107C238.922 369.387 238.62 370.489 238.015 371.413C237.429 372.32 236.655 373.013 235.695 373.493C234.735 373.973 233.695 374.213 232.575 374.213C231.704 374.213 230.789 374.036 229.829 373.68C228.869 373.307 228.104 372.818 227.535 372.213L229.509 369.013C229.775 369.351 230.184 369.68 230.735 370C231.287 370.32 231.864 370.48 232.469 370.48C232.86 370.48 233.242 370.382 233.615 370.187C233.989 369.991 234.3 369.698 234.549 369.307C234.798 368.916 234.922 368.436 234.922 367.867C234.922 367.084 234.7 366.462 234.255 366C233.829 365.538 233.224 365.307 232.442 365.307C231.909 365.307 231.5 365.333 231.215 365.387C230.949 365.422 230.682 365.476 230.415 365.547L230.335 365.44L233.455 359.6L234.575 360.053H229.002V356.32H238.629Z" fill="#013C5A"/>
<path d="M225.397 408.133V408.107L236.677 394.107H236.704V405.2H238.81V408.133H236.704V412H232.81V408.133H225.397ZM232.997 402.613L230.944 405.36L230.57 405.2H232.81V402.427L232.997 402.613Z" fill="#013C5A"/>
<path d="M232.552 454.213C231.503 454.213 230.481 454.018 229.486 453.627C228.49 453.236 227.717 452.764 227.166 452.213L229.166 449.12C229.486 449.511 229.939 449.84 230.526 450.107C231.13 450.356 231.708 450.48 232.259 450.48C232.668 450.48 233.05 450.391 233.406 450.213C233.761 450.036 234.046 449.769 234.259 449.413C234.472 449.058 234.579 448.622 234.579 448.107C234.579 447.538 234.463 447.04 234.232 446.613C234.019 446.187 233.699 445.858 233.272 445.627C232.863 445.378 232.375 445.253 231.806 445.253C231.255 445.253 230.73 445.333 230.232 445.493C229.735 445.636 229.148 445.884 228.472 446.24H228.446V436.32H237.272V440.053H231.779V442.907L231.326 442.107C231.575 442.071 231.815 442.044 232.046 442.027C232.277 442.009 232.508 442 232.739 442C233.983 442 235.032 442.276 235.886 442.827C236.757 443.378 237.423 444.107 237.886 445.013C238.348 445.92 238.579 446.907 238.579 447.973C238.579 449.147 238.312 450.204 237.779 451.147C237.246 452.089 236.517 452.836 235.592 453.387C234.686 453.938 233.672 454.213 232.552 454.213Z" fill="#013C5A"/>
</svg>
