<svg width="81" height="80" viewBox="0 0 81 80" fill="none" xmlns="http://www.w3.org/2000/svg">
<ellipse cx="40.5558" cy="40" rx="40.4444" ry="40" fill="#FFF4E9"/>
<ellipse cx="40.5553" cy="40" rx="36.4" ry="36" stroke="#013C5A" stroke-dasharray="2 2"/>
<path d="M19.3223 46.8945L33.2204 60.1818L61.7889 22" stroke="#20D28B" stroke-opacity="0.7" stroke-width="6.10909" stroke-linecap="round" stroke-linejoin="round"/>
<path d="M17.3266 43.1833C17.2195 43.2725 17.0187 43.393 16.7241 43.5448C16.4385 43.6965 16.0859 43.8304 15.6664 43.9464C15.2469 44.0625 14.7828 44.116 14.274 44.1071C13.4975 44.0892 12.8013 43.9509 12.1854 43.692C11.5785 43.4243 11.0608 43.0628 10.6323 42.6076C10.2128 42.1524 9.8915 41.6302 9.66836 41.0411C9.44521 40.452 9.33364 39.8228 9.33364 39.1533C9.33364 38.4036 9.44521 37.7163 9.66836 37.0915C9.90043 36.4667 10.2262 35.9267 10.6457 35.4715C11.0742 35.0163 11.5829 34.6637 12.172 34.4138C12.7611 34.1639 13.4127 34.0389 14.1267 34.0389C14.7873 34.0389 15.3719 34.1282 15.8807 34.3067C16.3894 34.4852 16.8045 34.6771 17.1258 34.8824L16.3626 36.7166C16.1395 36.547 15.8405 36.373 15.4656 36.1945C15.0997 36.007 14.6757 35.9133 14.1937 35.9133C13.8188 35.9133 13.4573 35.9936 13.1092 36.1543C12.77 36.306 12.4666 36.5247 12.1988 36.8103C11.94 37.0959 11.7347 37.4307 11.5829 37.8145C11.4312 38.1893 11.3553 38.5999 11.3553 39.0462C11.3553 39.5193 11.4223 39.9522 11.5561 40.3449C11.699 40.7376 11.8998 41.0768 12.1586 41.3624C12.4175 41.6391 12.7254 41.8534 13.0824 42.0051C13.4484 42.1568 13.859 42.2327 14.3142 42.2327C14.8408 42.2327 15.2916 42.1479 15.6664 41.9783C16.0413 41.8087 16.3269 41.6302 16.5233 41.4428L17.3266 43.1833ZM18.5084 41.0009C18.5084 40.4029 18.6467 39.8674 18.9234 39.3943C19.209 38.9213 19.6062 38.5508 20.115 38.2831C20.6238 38.0064 21.2084 37.868 21.8689 37.868C22.5383 37.868 23.1185 38.0064 23.6094 38.2831C24.1003 38.5508 24.4752 38.9213 24.734 39.3943C25.0018 39.8674 25.1357 40.4029 25.1357 41.0009C25.1357 41.599 25.0018 42.139 24.734 42.621C24.4752 43.094 24.1003 43.4689 23.6094 43.7456C23.1185 44.0223 22.5294 44.1606 21.8421 44.1606C21.1995 44.1606 20.6238 44.0357 20.115 43.7858C19.6152 43.5358 19.2224 43.1744 18.9368 42.7013C18.6512 42.2282 18.5084 41.6614 18.5084 41.0009ZM20.3962 41.0143C20.3962 41.3178 20.4586 41.5945 20.5836 41.8444C20.7086 42.0854 20.8781 42.2773 21.0924 42.4201C21.3066 42.5629 21.5476 42.6344 21.8153 42.6344C22.1099 42.6344 22.3643 42.5629 22.5785 42.4201C22.7927 42.2773 22.9578 42.0854 23.0739 41.8444C23.1899 41.5945 23.2479 41.3178 23.2479 41.0143C23.2479 40.7019 23.1899 40.4252 23.0739 40.1842C22.9578 39.9433 22.7927 39.7513 22.5785 39.6085C22.3643 39.4657 22.1099 39.3943 21.8153 39.3943C21.5476 39.3943 21.3066 39.4657 21.0924 39.6085C20.8781 39.7513 20.7086 39.9433 20.5836 40.1842C20.4586 40.4252 20.3962 40.7019 20.3962 41.0143ZM28.3127 38.1492L28.4599 39.1935L28.4332 39.0998C28.6385 38.7338 28.9285 38.4393 29.3034 38.2161C29.6783 37.9841 30.138 37.868 30.6824 37.868C31.2358 37.868 31.6955 38.0331 32.0615 38.3634C32.4363 38.6847 32.6282 39.1042 32.6372 39.6219V44H30.7628V40.3181C30.7538 40.0593 30.6824 39.854 30.5486 39.7023C30.4236 39.5416 30.2094 39.4613 29.9059 39.4613C29.6203 39.4613 29.3704 39.555 29.1561 39.7424C28.9419 39.9299 28.7768 40.1842 28.6608 40.5056C28.5447 40.8269 28.4867 41.1973 28.4867 41.6168V44H26.6123V38.1492H28.3127ZM39.5289 43.4778C39.2701 43.6831 38.9443 43.8482 38.5516 43.9732C38.1678 44.0982 37.7884 44.1606 37.4135 44.1606C36.7441 44.1606 36.1595 44.0402 35.6596 43.7992C35.1687 43.5492 34.7849 43.1967 34.5082 42.7415C34.2404 42.2773 34.1066 41.7195 34.1066 41.0679C34.1066 40.4163 34.2538 39.8629 34.5484 39.4077C34.8429 38.9436 35.2267 38.591 35.6998 38.35C36.1818 38.109 36.6861 37.9885 37.2127 37.9885C37.7393 37.9885 38.1945 38.0599 38.5783 38.2027C38.9711 38.3455 39.3058 38.533 39.5825 38.7651L38.6721 39.97C38.5471 39.8718 38.3731 39.7737 38.1499 39.6755C37.9357 39.5684 37.6813 39.5148 37.3868 39.5148C37.1279 39.5148 36.8914 39.5818 36.6772 39.7156C36.4629 39.8495 36.2934 40.0325 36.1684 40.2646C36.0434 40.4966 35.981 40.7644 35.981 41.0679C35.981 41.3535 36.0479 41.6168 36.1818 41.8578C36.3157 42.0988 36.4987 42.2907 36.7307 42.4335C36.9717 42.5674 37.2529 42.6344 37.5742 42.6344C37.7795 42.6344 37.9669 42.6076 38.1365 42.554C38.315 42.4915 38.4668 42.4067 38.5917 42.2996L39.5289 43.4778ZM40.9684 33.4364H42.8428V44H40.9684V33.4364ZM46.661 44.2811C46.1343 44.2811 45.6925 44.1205 45.3355 43.7992C44.9785 43.4689 44.791 43.0449 44.7732 42.5272V38.1492H46.6476V41.831C46.6654 42.0899 46.7324 42.2996 46.8484 42.4603C46.9644 42.612 47.1608 42.6879 47.4375 42.6879C47.7142 42.6879 47.9507 42.5942 48.1471 42.4067C48.3524 42.2193 48.5086 41.9649 48.6157 41.6436C48.7317 41.3133 48.7897 40.9429 48.7897 40.5323V38.1492H50.6641V44H48.9638L48.8165 42.9289L48.8433 43.0494C48.7094 43.2904 48.5398 43.5046 48.3345 43.692C48.1292 43.8795 47.8838 44.0223 47.5982 44.1205C47.3215 44.2276 47.0091 44.2811 46.661 44.2811ZM52.5919 38.1492H54.4663V44H52.5919V38.1492ZM55.524 35.6455L53.5425 37.453H52.4044L53.4487 35.6455H55.524ZM58.7798 44.1606C58.2353 44.1606 57.7489 44.0357 57.3204 43.7858C56.892 43.5269 56.5528 43.1565 56.3029 42.6745C56.0619 42.1925 55.9414 41.6213 55.9414 40.9608C55.9414 40.3003 56.0753 39.738 56.3431 39.2738C56.6109 38.8097 56.9768 38.4571 57.4409 38.2161C57.9051 37.9751 58.4317 37.8546 59.0208 37.8546C59.3957 37.8546 59.7527 37.9127 60.0919 38.0287C60.44 38.1447 60.7301 38.3232 60.9621 38.5642V39.1533V33.4364H62.8231V44H60.9487V42.862L61.096 43.2636C60.7925 43.5135 60.4534 43.7278 60.0785 43.9063C59.7036 44.0759 59.2707 44.1606 58.7798 44.1606ZM59.3957 42.5808C59.6456 42.5808 59.8643 42.5496 60.0517 42.4871C60.2481 42.4157 60.4177 42.3175 60.5605 42.1925C60.7122 42.0586 60.8416 41.8935 60.9487 41.6972V40.2646C60.8773 40.0682 60.7658 39.9031 60.614 39.7692C60.4712 39.6264 60.2927 39.5193 60.0785 39.4479C59.8732 39.3675 59.6456 39.3274 59.3957 39.3274C59.119 39.3274 58.8601 39.3988 58.6191 39.5416C58.3871 39.6755 58.1996 39.8629 58.0568 40.1039C57.914 40.3449 57.8426 40.6216 57.8426 40.934C57.8426 41.2464 57.914 41.5276 58.0568 41.7775C58.1996 42.0274 58.3871 42.2238 58.6191 42.3666C58.8601 42.5094 59.119 42.5808 59.3957 42.5808ZM64.2962 41.0009C64.2962 40.4029 64.4346 39.8674 64.7112 39.3943C64.9969 38.9213 65.3941 38.5508 65.9028 38.2831C66.4116 38.0064 66.9962 37.868 67.6567 37.868C68.3262 37.868 68.9063 38.0064 69.3972 38.2831C69.8882 38.5508 70.263 38.9213 70.5219 39.3943C70.7897 39.8674 70.9235 40.4029 70.9235 41.0009C70.9235 41.599 70.7897 42.139 70.5219 42.621C70.263 43.094 69.8882 43.4689 69.3972 43.7456C68.9063 44.0223 68.3172 44.1606 67.63 44.1606C66.9873 44.1606 66.4116 44.0357 65.9028 43.7858C65.403 43.5358 65.0103 43.1744 64.7246 42.7013C64.439 42.2282 64.2962 41.6614 64.2962 41.0009ZM66.184 41.0143C66.184 41.3178 66.2465 41.5945 66.3714 41.8444C66.4964 42.0854 66.666 42.2773 66.8802 42.4201C67.0944 42.5629 67.3354 42.6344 67.6032 42.6344C67.8977 42.6344 68.1521 42.5629 68.3663 42.4201C68.5805 42.2773 68.7457 42.0854 68.8617 41.8444C68.9777 41.5945 69.0358 41.3178 69.0358 41.0143C69.0358 40.7019 68.9777 40.4252 68.8617 40.1842C68.7457 39.9433 68.5805 39.7513 68.3663 39.6085C68.1521 39.4657 67.8977 39.3943 67.6032 39.3943C67.3354 39.3943 67.0944 39.4657 66.8802 39.6085C66.666 39.7513 66.4964 39.9433 66.3714 40.1842C66.2465 40.4252 66.184 40.7019 66.184 41.0143Z" fill="#013C5A"/>
</svg>
