<svg width="103" height="50" viewBox="0 0 103 50" fill="none" xmlns="http://www.w3.org/2000/svg">
<rect x="0.977539" width="101.111" height="50" rx="15" fill="#FFF4E9"/>
<rect x="5.02246" y="2" width="93.0222" height="46" rx="13.8" stroke="#013C5A" stroke-dasharray="2 2"/>
<path d="M51.5322 16.1082V25.7879L59.4417 33.8918" stroke="#F4B031" stroke-opacity="0.5" stroke-width="2.25109" stroke-linecap="round"/>
<ellipse cx="51.5328" cy="25" rx="17.526" ry="17.3334" stroke="#F4B031" stroke-opacity="0.5" stroke-width="2.53042" stroke-linejoin="round"/>
<path d="M41.4472 8.7142H49.0084V10.8229H43.6312V13.1877H48.3909V15.2963H43.6312V17.6912H49.2193V19.7999H41.4472V8.7142ZM53.0453 13.2178L53.211 14.3776L53.1809 14.2872C53.442 13.8454 53.7683 13.504 54.1599 13.263C54.5515 13.0119 55.0235 12.8864 55.5758 12.8864C55.9372 12.8864 56.2535 12.9366 56.5247 13.037C56.8058 13.1374 57.0418 13.2881 57.2326 13.4889C57.4234 13.6797 57.5539 13.9307 57.6242 14.242L57.5489 14.2571C57.8301 13.8454 58.1664 13.514 58.5581 13.263C58.9597 13.0119 59.3764 12.8864 59.8082 12.8864C60.4609 12.8864 60.978 13.0722 61.3596 13.4437C61.7512 13.8052 61.9521 14.2771 61.9621 14.8595V19.7999H59.8685V15.7332C59.8584 15.4419 59.8132 15.206 59.7329 15.0252C59.6526 14.8344 59.4668 14.729 59.1756 14.7089C58.8342 14.7089 58.543 14.8294 58.302 15.0704C58.071 15.3014 57.8953 15.6026 57.7748 15.9741C57.6644 16.3356 57.6091 16.7122 57.6091 17.1038V19.7999H55.5004V15.7332C55.4904 15.4419 55.4352 15.206 55.3348 15.0252C55.2444 14.8344 55.0536 14.729 54.7624 14.7089C54.431 14.7089 54.1499 14.8294 53.9189 15.0704C53.698 15.3014 53.5273 15.5976 53.4068 15.9591C53.2964 16.3206 53.2411 16.6921 53.2411 17.0737V19.7999H51.1324V13.2178H53.0453ZM21.8918 37.9807C21.5002 37.9807 21.1136 37.9104 20.732 37.7698C20.3605 37.6192 20.0492 37.4083 19.7982 37.1372L19.8584 36.5196V40.963H17.7648V31.0672H19.5723L19.8735 32.3474L19.7078 31.8956C20.0492 31.6044 20.4308 31.3634 20.8525 31.1726C21.2743 30.9818 21.7613 30.8864 22.3136 30.8864C22.9261 30.8864 23.4733 31.032 23.9553 31.3232C24.4373 31.6044 24.8139 32.0161 25.085 32.5583C25.3662 33.0905 25.5067 33.7332 25.5067 34.4863C25.5067 35.2293 25.3511 35.8619 25.0398 36.3841C24.7285 36.9062 24.3018 37.3029 23.7595 37.574C23.2173 37.8451 22.5947 37.9807 21.8918 37.9807ZM21.4701 36.3238C21.8115 36.3238 22.1228 36.2485 22.4039 36.0979C22.6951 35.9473 22.9261 35.7364 23.0968 35.4653C23.2775 35.1841 23.3679 34.8678 23.3679 34.5164C23.3679 34.1448 23.2876 33.8235 23.1269 33.5524C22.9763 33.2712 22.7654 33.0554 22.4943 32.9047C22.2332 32.7441 21.942 32.6637 21.6207 32.6637C21.3395 32.6637 21.0885 32.7039 20.8676 32.7842C20.6567 32.8545 20.4659 32.965 20.2952 33.1156C20.1346 33.2562 19.994 33.4369 19.8735 33.6578V35.2695C19.9538 35.4804 20.0693 35.6661 20.2199 35.8268C20.3705 35.9875 20.5513 36.113 20.7622 36.2033C20.9831 36.2837 21.219 36.3238 21.4701 36.3238ZM29.0618 31.2178L29.2576 33.0252L29.2124 32.7541C29.4032 32.3625 29.6642 32.0311 29.9956 31.76C30.327 31.4789 30.6533 31.263 30.9746 31.1123C31.306 30.9617 31.557 30.8864 31.7277 30.8864L31.6223 32.9951C31.1303 32.9349 30.7085 33.0152 30.3571 33.2361C30.0056 33.457 29.7345 33.7482 29.5437 34.1097C29.353 34.4712 29.2576 34.8427 29.2576 35.2243V37.7999H27.1639V31.2178H29.0618ZM32.5355 34.426C32.5355 33.7532 32.6911 33.1507 33.0024 32.6186C33.3237 32.0864 33.7706 31.6696 34.3429 31.3684C34.9153 31.0571 35.573 30.9015 36.3161 30.9015C37.0692 30.9015 37.7219 31.0571 38.2741 31.3684C38.8264 31.6696 39.2481 32.0864 39.5393 32.6186C39.8406 33.1507 39.9912 33.7532 39.9912 34.426C39.9912 35.0988 39.8406 35.7063 39.5393 36.2485C39.2481 36.7807 38.8264 37.2025 38.2741 37.5137C37.7219 37.825 37.0591 37.9807 36.2859 37.9807C35.5629 37.9807 34.9153 37.8401 34.3429 37.5589C33.7806 37.2778 33.3388 36.8711 33.0174 36.3389C32.6961 35.8067 32.5355 35.1691 32.5355 34.426ZM34.6592 34.4411C34.6592 34.7825 34.7295 35.0938 34.8701 35.3749C35.0107 35.646 35.2015 35.8619 35.4424 36.0226C35.6834 36.1833 35.9546 36.2636 36.2558 36.2636C36.5872 36.2636 36.8734 36.1833 37.1143 36.0226C37.3553 35.8619 37.5411 35.646 37.6716 35.3749C37.8022 35.0938 37.8675 34.7825 37.8675 34.4411C37.8675 34.0896 37.8022 33.7783 37.6716 33.5072C37.5411 33.2361 37.3553 33.0202 37.1143 32.8595C36.8734 32.6989 36.5872 32.6186 36.2558 32.6186C35.9546 32.6186 35.6834 32.6989 35.4424 32.8595C35.2015 33.0202 35.0107 33.2361 34.8701 33.5072C34.7295 33.7783 34.6592 34.0896 34.6592 34.4411ZM45.0564 41.1136C44.464 41.1136 43.9619 41.0433 43.5502 40.9027C43.1486 40.7621 42.8072 40.5914 42.526 40.3906C42.2448 40.1898 41.9938 39.999 41.7729 39.8183L43.008 38.3723C43.2389 38.5832 43.505 38.784 43.8063 38.9748C44.1176 39.1756 44.5242 39.276 45.0263 39.276C45.3577 39.276 45.6639 39.2158 45.9451 39.0953C46.2363 38.9848 46.4673 38.8191 46.638 38.5982C46.8187 38.3773 46.9091 38.1012 46.9091 37.7698V36.3238L46.9844 36.7004C46.8237 37.0418 46.5325 37.343 46.1108 37.6041C45.6891 37.8552 45.1368 37.9807 44.454 37.9807C43.8615 37.9807 43.3092 37.8301 42.7971 37.5288C42.2951 37.2175 41.8934 36.8008 41.5922 36.2787C41.2909 35.7465 41.1403 35.144 41.1403 34.4712C41.1403 33.7783 41.301 33.1658 41.6223 32.6336C41.9436 32.0914 42.3603 31.6646 42.8724 31.3533C43.3845 31.042 43.9268 30.8864 44.4991 30.8864C45.0715 30.8864 45.5635 30.9718 45.9752 31.1425C46.397 31.3031 46.7133 31.504 46.9241 31.7449L46.8488 31.9408L47.0748 31.2178H49.0178V37.7999C49.0178 38.4426 48.837 39.0099 48.4755 39.5019C48.1141 40.004 47.6321 40.3956 47.0296 40.6768C46.4371 40.968 45.7794 41.1136 45.0564 41.1136ZM43.264 34.4109C43.264 34.7624 43.3444 35.0787 43.505 35.3599C43.6657 35.641 43.8816 35.8619 44.1527 36.0226C44.4339 36.1833 44.7452 36.2636 45.0866 36.2636C45.3778 36.2636 45.6338 36.2284 45.8547 36.1582C46.0857 36.0778 46.2865 35.9674 46.4572 35.8268C46.638 35.6762 46.7886 35.4904 46.9091 35.2695V33.6578C46.8187 33.4369 46.6832 33.2512 46.5024 33.1005C46.3217 32.9399 46.1108 32.8194 45.8698 32.739C45.6388 32.6487 45.3778 32.6035 45.0866 32.6035C44.7452 32.6035 44.4339 32.6838 44.1527 32.8445C43.8816 32.9951 43.6657 33.206 43.505 33.4771C43.3444 33.7482 43.264 34.0595 43.264 34.4109ZM53.0817 31.2178L53.2775 33.0252L53.2324 32.7541C53.4231 32.3625 53.6842 32.0311 54.0156 31.76C54.347 31.4789 54.6733 31.263 54.9946 31.1123C55.326 30.9617 55.577 30.8864 55.7477 30.8864L55.6423 32.9951C55.1503 32.9349 54.7285 33.0152 54.3771 33.2361C54.0256 33.457 53.7545 33.7482 53.5637 34.1097C53.3729 34.4712 53.2775 34.8427 53.2775 35.2243V37.7999H51.1839V31.2178H53.0817ZM60.3059 37.9807C59.5026 37.9807 58.8198 37.8301 58.2575 37.5288C57.7052 37.2276 57.2834 36.8108 56.9922 36.2787C56.701 35.7465 56.5554 35.1339 56.5554 34.4411C56.5554 33.7783 56.7261 33.1809 57.0676 32.6487C57.409 32.1165 57.8658 31.6947 58.4382 31.3835C59.0106 31.0621 59.6482 30.9015 60.3511 30.9015C61.295 30.9015 62.0682 31.1776 62.6707 31.7299C63.2832 32.2721 63.6798 33.0604 63.8606 34.0946L58.7394 35.7214L58.2725 34.5766L61.9778 33.3265L61.541 33.5223C61.4607 33.2612 61.3151 33.0353 61.1042 32.8445C60.9034 32.6437 60.5971 32.5432 60.1854 32.5432C59.8741 32.5432 59.598 32.6186 59.357 32.7692C59.126 32.9098 58.9453 33.1156 58.8148 33.3867C58.6943 33.6478 58.634 33.9591 58.634 34.3206C58.634 34.7323 58.7093 35.0787 58.8599 35.3599C59.0106 35.631 59.2164 35.8368 59.4775 35.9774C59.7386 36.118 60.0298 36.1883 60.3511 36.1883C60.582 36.1883 60.803 36.1481 61.0138 36.0678C61.2347 35.9875 61.4506 35.882 61.6615 35.7515L62.5954 37.3179C62.2439 37.5188 61.8623 37.6794 61.4506 37.7999C61.049 37.9204 60.6674 37.9807 60.3059 37.9807ZM67.5317 37.9355C66.9895 37.9355 66.4824 37.8401 66.0105 37.6493C65.5486 37.4585 65.1569 37.1924 64.8356 36.851L65.7092 35.6912C66.0305 35.9824 66.3268 36.1933 66.5979 36.3238C66.879 36.4443 67.1301 36.5046 67.351 36.5046C67.5217 36.5046 67.6723 36.4895 67.8029 36.4594C67.9434 36.4192 68.0539 36.364 68.1342 36.2937C68.2146 36.2134 68.2547 36.113 68.2547 35.9925C68.2547 35.8218 68.1844 35.6862 68.0438 35.5858C67.9133 35.4854 67.7426 35.405 67.5317 35.3448C67.3209 35.2745 67.0949 35.2042 66.8539 35.1339C66.2515 34.9431 65.8147 34.667 65.5435 34.3055C65.2825 33.934 65.1519 33.5323 65.1519 33.1005C65.1519 32.7692 65.2373 32.4378 65.408 32.1064C65.5887 31.765 65.8699 31.4839 66.2515 31.263C66.6431 31.032 67.1451 30.9165 67.7577 30.9165C68.3099 30.9165 68.7769 30.9718 69.1584 31.0822C69.54 31.1927 69.9015 31.3734 70.2429 31.6245L69.4446 32.8595C69.2538 32.7089 69.0379 32.5834 68.797 32.483C68.566 32.3725 68.3501 32.3123 68.1493 32.3022C67.9685 32.2922 67.8129 32.3123 67.6824 32.3625C67.5619 32.4127 67.4665 32.478 67.3962 32.5583C67.3259 32.6386 67.2907 32.724 67.2907 32.8144C67.2807 33.0051 67.351 33.1558 67.5016 33.2662C67.6623 33.3767 67.8631 33.462 68.1041 33.5223C68.3451 33.5825 68.5811 33.6528 68.812 33.7332C69.1333 33.8336 69.4095 33.9691 69.6404 34.1398C69.8714 34.3105 70.0471 34.5164 70.1676 34.7574C70.2981 34.9883 70.3634 35.2695 70.3634 35.6009C70.3634 36.0025 70.258 36.3841 70.0471 36.7456C69.8463 37.097 69.535 37.3832 69.1133 37.6041C68.7016 37.825 68.1744 37.9355 67.5317 37.9355ZM74.2685 37.9355C73.7263 37.9355 73.2192 37.8401 72.7472 37.6493C72.2853 37.4585 71.8937 37.1924 71.5724 36.851L72.446 35.6912C72.7673 35.9824 73.0635 36.1933 73.3347 36.3238C73.6158 36.4443 73.8668 36.5046 74.0878 36.5046C74.2585 36.5046 74.4091 36.4895 74.5396 36.4594C74.6802 36.4192 74.7907 36.364 74.871 36.2937C74.9513 36.2134 74.9915 36.113 74.9915 35.9925C74.9915 35.8218 74.9212 35.6862 74.7806 35.5858C74.6501 35.4854 74.4794 35.405 74.2685 35.3448C74.0576 35.2745 73.8317 35.2042 73.5907 35.1339C72.9882 34.9431 72.5514 34.667 72.2803 34.3055C72.0192 33.934 71.8887 33.5323 71.8887 33.1005C71.8887 32.7692 71.974 32.4378 72.1447 32.1064C72.3255 31.765 72.6066 31.4839 72.9882 31.263C73.3798 31.032 73.8819 30.9165 74.4944 30.9165C75.0467 30.9165 75.5136 30.9718 75.8952 31.0822C76.2768 31.1927 76.6383 31.3734 76.9797 31.6245L76.1814 32.8595C75.9906 32.7089 75.7747 32.5834 75.5337 32.483C75.3028 32.3725 75.0869 32.3123 74.8861 32.3022C74.7053 32.2922 74.5497 32.3123 74.4191 32.3625C74.2986 32.4127 74.2032 32.478 74.1329 32.5583C74.0627 32.6386 74.0275 32.724 74.0275 32.8144C74.0175 33.0051 74.0878 33.1558 74.2384 33.2662C74.399 33.3767 74.5999 33.462 74.8409 33.5223C75.0819 33.5825 75.3178 33.6528 75.5488 33.7332C75.8701 33.8336 76.1463 33.9691 76.3772 34.1398C76.6082 34.3105 76.7839 34.5164 76.9044 34.7574C77.0349 34.9883 77.1002 35.2695 77.1002 35.6009C77.1002 36.0025 76.9948 36.3841 76.7839 36.7456C76.5831 37.097 76.2718 37.3832 75.85 37.6041C75.4383 37.825 74.9112 37.9355 74.2685 37.9355ZM78.3543 34.426C78.3543 33.7532 78.51 33.1507 78.8213 32.6186C79.1426 32.0864 79.5894 31.6696 80.1618 31.3684C80.7342 31.0571 81.3919 30.9015 82.1349 30.9015C82.888 30.9015 83.5407 31.0571 84.093 31.3684C84.6453 31.6696 85.067 32.0864 85.3582 32.6186C85.6595 33.1507 85.8101 33.7532 85.8101 34.426C85.8101 35.0988 85.6595 35.7063 85.3582 36.2485C85.067 36.7807 84.6453 37.2025 84.093 37.5137C83.5407 37.825 82.878 37.9807 82.1048 37.9807C81.3818 37.9807 80.7342 37.8401 80.1618 37.5589C79.5995 37.2778 79.1577 36.8711 78.8363 36.3389C78.515 35.8067 78.3543 35.1691 78.3543 34.426ZM80.4781 34.4411C80.4781 34.7825 80.5484 35.0938 80.689 35.3749C80.8296 35.646 81.0203 35.8619 81.2613 36.0226C81.5023 36.1833 81.7735 36.2636 82.0747 36.2636C82.4061 36.2636 82.6922 36.1833 82.9332 36.0226C83.1742 35.8619 83.36 35.646 83.4905 35.3749C83.6211 35.0938 83.6863 34.7825 83.6863 34.4411C83.6863 34.0896 83.6211 33.7783 83.4905 33.5072C83.36 33.2361 83.1742 33.0202 82.9332 32.8595C82.6922 32.6989 82.4061 32.6186 82.0747 32.6186C81.7735 32.6186 81.5023 32.6989 81.2613 32.8595C81.0203 33.0202 80.8296 33.2361 80.689 33.5072C80.5484 33.7783 80.4781 34.0896 80.4781 34.4411Z" fill="#00111A"/>
</svg>
