<svg width="102" height="50" viewBox="0 0 102 50" fill="none" xmlns="http://www.w3.org/2000/svg">
<rect x="0.144531" width="101.111" height="50" rx="15" fill="#FFF4E9"/>
<rect x="4.18848" y="2" width="93.0222" height="46" rx="13.8" stroke="#013C5A" stroke-dasharray="2 2"/>
<path d="M50.6982 16.1082V25.7879L58.6077 33.8918" stroke="#F4B031" stroke-opacity="0.5" stroke-width="2.25109" stroke-linecap="round"/>
<ellipse cx="50.6989" cy="25" rx="17.526" ry="17.3334" stroke="#F4B031" stroke-opacity="0.5" stroke-width="2.53042" stroke-linejoin="round"/>
<path d="M40.6142 8.7142H48.1754V10.8229H42.7982V13.1877H47.5579V15.2963H42.7982V17.6912H48.3863V19.7999H40.6142V8.7142ZM52.2123 13.2178L52.378 14.3776L52.3479 14.2872C52.6089 13.8454 52.9353 13.504 53.3269 13.263C53.7185 13.0119 54.1905 12.8864 54.7427 12.8864C55.1042 12.8864 55.4205 12.9366 55.6917 13.037C55.9728 13.1374 56.2088 13.2881 56.3996 13.4889C56.5904 13.6797 56.7209 13.9307 56.7912 14.242L56.7159 14.2571C56.997 13.8454 57.3334 13.514 57.725 13.263C58.1267 13.0119 58.5434 12.8864 58.9752 12.8864C59.6279 12.8864 60.145 13.0722 60.5266 13.4437C60.9182 13.8052 61.119 14.2771 61.1291 14.8595V19.7999H59.0355V15.7332C59.0254 15.4419 58.9802 15.206 58.8999 15.0252C58.8196 14.8344 58.6338 14.729 58.3426 14.7089C58.0012 14.7089 57.71 14.8294 57.469 15.0704C57.238 15.3014 57.0623 15.6026 56.9418 15.9741C56.8314 16.3356 56.7761 16.7122 56.7761 17.1038V19.7999H54.6674V15.7332C54.6574 15.4419 54.6022 15.206 54.5018 15.0252C54.4114 14.8344 54.2206 14.729 53.9294 14.7089C53.598 14.7089 53.3169 14.8294 53.0859 15.0704C52.865 15.3014 52.6943 15.5976 52.5738 15.9591C52.4633 16.3206 52.4081 16.6921 52.4081 17.0737V19.7999H50.2994V13.2178H52.2123ZM21.0588 37.9807C20.6672 37.9807 20.2806 37.9104 19.899 37.7698C19.5275 37.6192 19.2162 37.4083 18.9652 37.1372L19.0254 36.5196V40.963H16.9318V31.0672H18.7392L19.0405 32.3474L18.8748 31.8956C19.2162 31.6044 19.5978 31.3634 20.0195 31.1726C20.4413 30.9818 20.9283 30.8864 21.4806 30.8864C22.0931 30.8864 22.6403 31.032 23.1223 31.3232C23.6043 31.6044 23.9809 32.0161 24.252 32.5583C24.5331 33.0905 24.6737 33.7332 24.6737 34.4863C24.6737 35.2293 24.5181 35.8619 24.2068 36.3841C23.8955 36.9062 23.4688 37.3029 22.9265 37.574C22.3843 37.8451 21.7617 37.9807 21.0588 37.9807ZM20.6371 36.3238C20.9785 36.3238 21.2898 36.2485 21.5709 36.0979C21.8621 35.9473 22.0931 35.7364 22.2638 35.4653C22.4445 35.1841 22.5349 34.8678 22.5349 34.5164C22.5349 34.1448 22.4546 33.8235 22.2939 33.5524C22.1433 33.2712 21.9324 33.0554 21.6613 32.9047C21.4002 32.7441 21.109 32.6637 20.7877 32.6637C20.5065 32.6637 20.2555 32.7039 20.0346 32.7842C19.8237 32.8545 19.6329 32.965 19.4622 33.1156C19.3016 33.2562 19.161 33.4369 19.0405 33.6578V35.2695C19.1208 35.4804 19.2363 35.6661 19.3869 35.8268C19.5375 35.9875 19.7183 36.113 19.9292 36.2033C20.1501 36.2837 20.386 36.3238 20.6371 36.3238ZM28.2287 31.2178L28.4246 33.0252L28.3794 32.7541C28.5702 32.3625 28.8312 32.0311 29.1626 31.76C29.494 31.4789 29.8203 31.263 30.1416 31.1123C30.473 30.9617 30.724 30.8864 30.8947 30.8864L30.7893 32.9951C30.2973 32.9349 29.8755 33.0152 29.5241 33.2361C29.1726 33.457 28.9015 33.7482 28.7107 34.1097C28.5199 34.4712 28.4246 34.8427 28.4246 35.2243V37.7999H26.3309V31.2178H28.2287ZM31.7024 34.426C31.7024 33.7532 31.8581 33.1507 32.1694 32.6186C32.4907 32.0864 32.9375 31.6696 33.5099 31.3684C34.0823 31.0571 34.74 30.9015 35.483 30.9015C36.2362 30.9015 36.8888 31.0571 37.4411 31.3684C37.9934 31.6696 38.4151 32.0864 38.7063 32.6186C39.0076 33.1507 39.1582 33.7532 39.1582 34.426C39.1582 35.0988 39.0076 35.7063 38.7063 36.2485C38.4151 36.7807 37.9934 37.2025 37.4411 37.5137C36.8888 37.825 36.2261 37.9807 35.4529 37.9807C34.7299 37.9807 34.0823 37.8401 33.5099 37.5589C32.9476 37.2778 32.5058 36.8711 32.1844 36.3389C31.8631 35.8067 31.7024 35.1691 31.7024 34.426ZM33.8262 34.4411C33.8262 34.7825 33.8965 35.0938 34.0371 35.3749C34.1777 35.646 34.3684 35.8619 34.6094 36.0226C34.8504 36.1833 35.1216 36.2636 35.4228 36.2636C35.7542 36.2636 36.0403 36.1833 36.2813 36.0226C36.5223 35.8619 36.7081 35.646 36.8386 35.3749C36.9692 35.0938 37.0344 34.7825 37.0344 34.4411C37.0344 34.0896 36.9692 33.7783 36.8386 33.5072C36.7081 33.2361 36.5223 33.0202 36.2813 32.8595C36.0403 32.6989 35.7542 32.6186 35.4228 32.6186C35.1216 32.6186 34.8504 32.6989 34.6094 32.8595C34.3684 33.0202 34.1777 33.2361 34.0371 33.5072C33.8965 33.7783 33.8262 34.0896 33.8262 34.4411ZM44.2234 41.1136C43.631 41.1136 43.1289 41.0433 42.7172 40.9027C42.3156 40.7621 41.9742 40.5914 41.693 40.3906C41.4118 40.1898 41.1608 39.999 40.9399 39.8183L42.175 38.3723C42.4059 38.5832 42.672 38.784 42.9733 38.9748C43.2846 39.1756 43.6912 39.276 44.1933 39.276C44.5247 39.276 44.8309 39.2158 45.1121 39.0953C45.4033 38.9848 45.6343 38.8191 45.805 38.5982C45.9857 38.3773 46.0761 38.1012 46.0761 37.7698V36.3238L46.1514 36.7004C45.9907 37.0418 45.6995 37.343 45.2778 37.6041C44.856 37.8552 44.3038 37.9807 43.6209 37.9807C43.0285 37.9807 42.4762 37.8301 41.9641 37.5288C41.462 37.2175 41.0604 36.8008 40.7591 36.2787C40.4579 35.7465 40.3073 35.144 40.3073 34.4712C40.3073 33.7783 40.4679 33.1658 40.7893 32.6336C41.1106 32.0914 41.5273 31.6646 42.0394 31.3533C42.5515 31.042 43.0938 30.8864 43.6661 30.8864C44.2385 30.8864 44.7305 30.9718 45.1422 31.1425C45.564 31.3031 45.8803 31.504 46.0911 31.7449L46.0158 31.9408L46.2418 31.2178H48.1848V37.7999C48.1848 38.4426 48.004 39.0099 47.6425 39.5019C47.281 40.004 46.7991 40.3956 46.1966 40.6768C45.6041 40.968 44.9464 41.1136 44.2234 41.1136ZM42.431 34.4109C42.431 34.7624 42.5114 35.0787 42.672 35.3599C42.8327 35.641 43.0486 35.8619 43.3197 36.0226C43.6009 36.1833 43.9122 36.2636 44.2536 36.2636C44.5448 36.2636 44.8008 36.2284 45.0217 36.1582C45.2527 36.0778 45.4535 35.9674 45.6242 35.8268C45.805 35.6762 45.9556 35.4904 46.0761 35.2695V33.6578C45.9857 33.4369 45.8501 33.2512 45.6694 33.1005C45.4887 32.9399 45.2778 32.8194 45.0368 32.739C44.8058 32.6487 44.5448 32.6035 44.2536 32.6035C43.9122 32.6035 43.6009 32.6838 43.3197 32.8445C43.0486 32.9951 42.8327 33.206 42.672 33.4771C42.5114 33.7482 42.431 34.0595 42.431 34.4109ZM52.2487 31.2178L52.4445 33.0252L52.3993 32.7541C52.5901 32.3625 52.8512 32.0311 53.1826 31.76C53.5139 31.4789 53.8403 31.263 54.1616 31.1123C54.493 30.9617 54.744 30.8864 54.9147 30.8864L54.8093 32.9951C54.3173 32.9349 53.8955 33.0152 53.5441 33.2361C53.1926 33.457 52.9215 33.7482 52.7307 34.1097C52.5399 34.4712 52.4445 34.8427 52.4445 35.2243V37.7999H50.3509V31.2178H52.2487ZM59.4729 37.9807C58.6696 37.9807 57.9868 37.8301 57.4245 37.5288C56.8722 37.2276 56.4504 36.8108 56.1592 36.2787C55.868 35.7465 55.7224 35.1339 55.7224 34.4411C55.7224 33.7783 55.8931 33.1809 56.2345 32.6487C56.576 32.1165 57.0328 31.6947 57.6052 31.3835C58.1776 31.0621 58.8152 30.9015 59.5181 30.9015C60.462 30.9015 61.2352 31.1776 61.8377 31.7299C62.4502 32.2721 62.8468 33.0604 63.0276 34.0946L57.9064 35.7214L57.4395 34.5766L61.1448 33.3265L60.708 33.5223C60.6277 33.2612 60.4821 33.0353 60.2712 32.8445C60.0704 32.6437 59.7641 32.5432 59.3524 32.5432C59.0411 32.5432 58.765 32.6186 58.524 32.7692C58.293 32.9098 58.1123 33.1156 57.9818 33.3867C57.8613 33.6478 57.801 33.9591 57.801 34.3206C57.801 34.7323 57.8763 35.0787 58.0269 35.3599C58.1776 35.631 58.3834 35.8368 58.6445 35.9774C58.9056 36.118 59.1968 36.1883 59.5181 36.1883C59.749 36.1883 59.97 36.1481 60.1808 36.0678C60.4017 35.9875 60.6176 35.882 60.8285 35.7515L61.7623 37.3179C61.4109 37.5188 61.0293 37.6794 60.6176 37.7999C60.216 37.9204 59.8344 37.9807 59.4729 37.9807ZM66.6987 37.9355C66.1565 37.9355 65.6494 37.8401 65.1775 37.6493C64.7155 37.4585 64.3239 37.1924 64.0026 36.851L64.8762 35.6912C65.1975 35.9824 65.4938 36.1933 65.7649 36.3238C66.046 36.4443 66.2971 36.5046 66.518 36.5046C66.6887 36.5046 66.8393 36.4895 66.9698 36.4594C67.1104 36.4192 67.2209 36.364 67.3012 36.2937C67.3815 36.2134 67.4217 36.113 67.4217 35.9925C67.4217 35.8218 67.3514 35.6862 67.2108 35.5858C67.0803 35.4854 66.9096 35.405 66.6987 35.3448C66.4879 35.2745 66.2619 35.2042 66.0209 35.1339C65.4184 34.9431 64.9816 34.667 64.7105 34.3055C64.4494 33.934 64.3189 33.5323 64.3189 33.1005C64.3189 32.7692 64.4043 32.4378 64.575 32.1064C64.7557 31.765 65.0369 31.4839 65.4184 31.263C65.8101 31.032 66.3121 30.9165 66.9247 30.9165C67.4769 30.9165 67.9439 30.9718 68.3254 31.0822C68.707 31.1927 69.0685 31.3734 69.4099 31.6245L68.6116 32.8595C68.4208 32.7089 68.2049 32.5834 67.9639 32.483C67.733 32.3725 67.5171 32.3123 67.3163 32.3022C67.1355 32.2922 66.9799 32.3123 66.8493 32.3625C66.7289 32.4127 66.6335 32.478 66.5632 32.5583C66.4929 32.6386 66.4577 32.724 66.4577 32.8144C66.4477 33.0051 66.518 33.1558 66.6686 33.2662C66.8293 33.3767 67.0301 33.462 67.2711 33.5223C67.5121 33.5825 67.7481 33.6528 67.979 33.7332C68.3003 33.8336 68.5765 33.9691 68.8074 34.1398C69.0384 34.3105 69.2141 34.5164 69.3346 34.7574C69.4651 34.9883 69.5304 35.2695 69.5304 35.6009C69.5304 36.0025 69.425 36.3841 69.2141 36.7456C69.0133 37.097 68.702 37.3832 68.2802 37.6041C67.8686 37.825 67.3414 37.9355 66.6987 37.9355ZM73.4355 37.9355C72.8933 37.9355 72.3862 37.8401 71.9142 37.6493C71.4523 37.4585 71.0607 37.1924 70.7394 36.851L71.613 35.6912C71.9343 35.9824 72.2305 36.1933 72.5016 36.3238C72.7828 36.4443 73.0338 36.5046 73.2548 36.5046C73.4255 36.5046 73.5761 36.4895 73.7066 36.4594C73.8472 36.4192 73.9577 36.364 74.038 36.2937C74.1183 36.2134 74.1585 36.113 74.1585 35.9925C74.1585 35.8218 74.0882 35.6862 73.9476 35.5858C73.8171 35.4854 73.6464 35.405 73.4355 35.3448C73.2246 35.2745 72.9987 35.2042 72.7577 35.1339C72.1552 34.9431 71.7184 34.667 71.4473 34.3055C71.1862 33.934 71.0557 33.5323 71.0557 33.1005C71.0557 32.7692 71.141 32.4378 71.3117 32.1064C71.4925 31.765 71.7736 31.4839 72.1552 31.263C72.5468 31.032 73.0489 30.9165 73.6614 30.9165C74.2137 30.9165 74.6806 30.9718 75.0622 31.0822C75.4438 31.1927 75.8053 31.3734 76.1467 31.6245L75.3484 32.8595C75.1576 32.7089 74.9417 32.5834 74.7007 32.483C74.4698 32.3725 74.2539 32.3123 74.053 32.3022C73.8723 32.2922 73.7167 32.3123 73.5861 32.3625C73.4656 32.4127 73.3702 32.478 73.2999 32.5583C73.2296 32.6386 73.1945 32.724 73.1945 32.8144C73.1845 33.0051 73.2548 33.1558 73.4054 33.2662C73.566 33.3767 73.7669 33.462 74.0079 33.5223C74.2489 33.5825 74.4848 33.6528 74.7158 33.7332C75.0371 33.8336 75.3132 33.9691 75.5442 34.1398C75.7751 34.3105 75.9509 34.5164 76.0714 34.7574C76.2019 34.9883 76.2672 35.2695 76.2672 35.6009C76.2672 36.0025 76.1617 36.3841 75.9509 36.7456C75.75 37.097 75.4388 37.3832 75.017 37.6041C74.6053 37.825 74.0781 37.9355 73.4355 37.9355ZM77.5213 34.426C77.5213 33.7532 77.677 33.1507 77.9883 32.6186C78.3096 32.0864 78.7564 31.6696 79.3288 31.3684C79.9012 31.0571 80.5589 30.9015 81.3019 30.9015C82.055 30.9015 82.7077 31.0571 83.26 31.3684C83.8123 31.6696 84.234 32.0864 84.5252 32.6186C84.8265 33.1507 84.9771 33.7532 84.9771 34.426C84.9771 35.0988 84.8265 35.7063 84.5252 36.2485C84.234 36.7807 83.8123 37.2025 83.26 37.5137C82.7077 37.825 82.045 37.9807 81.2718 37.9807C80.5488 37.9807 79.9012 37.8401 79.3288 37.5589C78.7665 37.2778 78.3247 36.8711 78.0033 36.3389C77.682 35.8067 77.5213 35.1691 77.5213 34.426ZM79.6451 34.4411C79.6451 34.7825 79.7154 35.0938 79.856 35.3749C79.9966 35.646 80.1873 35.8619 80.4283 36.0226C80.6693 36.1833 80.9404 36.2636 81.2417 36.2636C81.5731 36.2636 81.8592 36.1833 82.1002 36.0226C82.3412 35.8619 82.527 35.646 82.6575 35.3749C82.7881 35.0938 82.8533 34.7825 82.8533 34.4411C82.8533 34.0896 82.7881 33.7783 82.6575 33.5072C82.527 33.2361 82.3412 33.0202 82.1002 32.8595C81.8592 32.6989 81.5731 32.6186 81.2417 32.6186C80.9404 32.6186 80.6693 32.6989 80.4283 32.8595C80.1873 33.0202 79.9966 33.2361 79.856 33.5072C79.7154 33.7783 79.6451 34.0896 79.6451 34.4411Z" fill="#00111A"/>
</svg>
