<svg width="102" height="71" viewBox="0 0 102 71" fill="none" xmlns="http://www.w3.org/2000/svg">
<rect x="0.27832" width="101.111" height="70" rx="15" fill="#FFF4E9"/>
<rect x="4.32324" y="4" width="93.0222" height="62" rx="13.5" stroke="#013C5A" stroke-dasharray="2 2"/>
<path d="M50.8337 9L77.9788 55.5H23.6886L50.8337 9Z" fill="#E15753" fill-opacity="0.6"/>
<path d="M11.4947 40L18.6384 23.5393H18.8105L25.9543 40H22.3394L17.7777 28.4237L20.037 26.8745L14.5716 40H11.4947ZM16.3791 34.2764H21.1344L22.2318 36.9015H15.4108L16.3791 34.2764ZM35.669 40V33.2221H34.0767V30.5539H35.669V27.2833C35.669 26.0497 36.0204 25.0455 36.7233 24.2709C37.4405 23.4819 38.4734 23.0874 39.8218 23.0874C40.2234 23.0874 40.6681 23.152 41.1559 23.2811C41.6579 23.3959 42.0954 23.5895 42.4684 23.8621L41.1989 26.0353C41.0554 25.8488 40.8833 25.7269 40.6825 25.6695C40.496 25.5978 40.3167 25.5619 40.1445 25.5619C39.7142 25.5619 39.3628 25.7054 39.0902 25.9923C38.8177 26.2792 38.6814 26.7382 38.6814 27.3694V30.5539H41.5217V33.2221H38.6814V40H35.669ZM47.4238 40.2582C46.5487 40.2582 45.7526 40.0861 45.0354 39.7418C44.3325 39.3832 43.773 38.8381 43.357 38.1065C42.941 37.3749 42.733 36.4425 42.733 35.3092C42.733 34.2477 42.9482 33.3297 43.3785 32.555C43.8089 31.7804 44.3755 31.1851 45.0784 30.7691C45.7813 30.3388 46.5272 30.1236 47.3162 30.1236C48.2486 30.1236 48.9515 30.2814 49.4249 30.597C49.9126 30.8982 50.3142 31.2353 50.6298 31.6083L50.5007 31.9741L50.7805 30.597H53.5777V40H50.5653V37.9559L50.802 38.6014C50.7733 38.6014 50.6872 38.6874 50.5438 38.8596C50.4003 39.0174 50.1851 39.211 49.8982 39.4406C49.6257 39.6557 49.2814 39.8422 48.8654 40C48.4638 40.1721 47.9832 40.2582 47.4238 40.2582ZM48.2845 37.8052C48.6431 37.8052 48.9658 37.755 49.2527 37.6546C49.5396 37.5399 49.7907 37.3821 50.0058 37.1812C50.221 36.9661 50.4075 36.7007 50.5653 36.3851V34.0828C50.4505 33.7672 50.2784 33.5018 50.0489 33.2866C49.8194 33.0571 49.5468 32.885 49.2312 32.7702C48.9156 32.6411 48.5642 32.5766 48.1769 32.5766C47.7465 32.5766 47.3449 32.6913 46.9719 32.9208C46.6133 33.136 46.3264 33.4372 46.1112 33.8246C45.896 34.2119 45.7885 34.6566 45.7885 35.1586C45.7885 35.6607 45.9032 36.1126 46.1327 36.5142C46.3622 36.9159 46.6635 37.2314 47.0365 37.461C47.4238 37.6905 47.8398 37.8052 48.2845 37.8052ZM58.1449 33.0499C57.6285 33.0499 57.1766 32.8634 56.7893 32.4905C56.402 32.1175 56.2083 31.6154 56.2083 30.9843V29.6932H58.4677V29.9945C58.4677 30.2957 58.5179 30.475 58.6183 30.5324C58.733 30.5754 58.9267 30.597 59.1992 30.597H65.1595L59.9523 38.171L59.3929 37.547H65.095V40H55.5628L60.9206 32.1892L61.3725 33.0499H58.1449ZM72.5499 40.2582C71.4023 40.2582 70.4268 40.043 69.6235 39.6127C68.8345 39.1823 68.2321 38.587 67.8161 37.8268C67.4001 37.0665 67.1921 36.1914 67.1921 35.2017C67.1921 34.2549 67.4359 33.4014 67.9236 32.6411C68.4114 31.8808 69.0641 31.2783 69.8817 30.8337C70.6994 30.3746 71.6103 30.1451 72.6144 30.1451C73.9628 30.1451 75.0674 30.5396 75.9281 31.3286C76.8031 32.1032 77.3697 33.2292 77.6279 34.7068L70.3121 37.0306L69.645 35.3953L74.9383 33.6094L74.3143 33.8891C74.1995 33.5161 73.9915 33.1934 73.6903 32.9208C73.4034 32.6339 72.9659 32.4905 72.3777 32.4905C71.933 32.4905 71.5385 32.5981 71.1943 32.8132C70.8643 33.0141 70.6061 33.3081 70.4196 33.6954C70.2475 34.0684 70.1614 34.5131 70.1614 35.0295C70.1614 35.6177 70.269 36.1126 70.4842 36.5142C70.6994 36.9015 70.9934 37.1956 71.3664 37.3964C71.7394 37.5972 72.1554 37.6977 72.6144 37.6977C72.9443 37.6977 73.2599 37.6403 73.5612 37.5255C73.8768 37.4108 74.1852 37.2601 74.4864 37.0737L75.8205 39.3114C75.3184 39.5983 74.7733 39.8279 74.1852 40C73.6114 40.1721 73.0663 40.2582 72.5499 40.2582ZM82.5281 30.597L82.8079 33.179L82.7433 32.7917C83.0159 32.2323 83.3888 31.7589 83.8622 31.3716C84.3356 30.9699 84.8018 30.6615 85.2608 30.4463C85.7342 30.2312 86.0928 30.1236 86.3367 30.1236L86.1861 33.136C85.4832 33.0499 84.8807 33.1647 84.3786 33.4803C83.8765 33.7959 83.4892 34.2119 83.2167 34.7283C82.9441 35.2447 82.8079 35.7754 82.8079 36.3206V40H79.817V30.597H82.5281ZM87.8678 23.5393H90.5574V35.7181H87.8678V23.5393ZM89.2879 40.3012C88.7715 40.3012 88.3483 40.165 88.0184 39.8924C87.6885 39.6055 87.5235 39.2326 87.5235 38.7735C87.5235 38.3288 87.6885 37.9559 88.0184 37.6546C88.3627 37.3534 88.7858 37.2028 89.2879 37.2028C89.79 37.2028 90.1988 37.3534 90.5144 37.6546C90.8443 37.9559 91.0093 38.3288 91.0093 38.7735C91.0093 39.2326 90.8515 39.6055 90.5359 39.8924C90.2203 40.165 89.8043 40.3012 89.2879 40.3012Z" fill="#00111A"/>
</svg>
