<svg width="360" height="396" viewBox="0 0 360 396" fill="none" xmlns="http://www.w3.org/2000/svg">
<g clip-path="url(#clip0_420_383)">
<path d="M0 3.96C0 1.77296 1.77118 0 3.95604 0H240V39.6H0V3.96Z" fill="#E15753"/>
<path d="M40 59.3999H0V138.6H40V59.3999Z" fill="#F4A258"/>
<path d="M240 158.4H0V198H240V158.4Z" fill="#20D28B"/>
<path d="M300 0H260V39.6H300V0Z" fill="#013C5A"/>
<path d="M0 217.8H40V396H3.95604C1.77118 396 0 394.227 0 392.04V217.8Z" fill="#013C5A"/>
<path d="M360 158.4H260V198H360V158.4Z" fill="#F4A258"/>
<path d="M320 0H356.044C358.229 0 360 1.77296 360 3.96V39.6H320V0Z" fill="#20D28B"/>
<path d="M360 217.8H320V336.6H360V217.8Z" fill="#20D28B"/>
<path d="M320 356.4H360V392.04C360 394.227 358.229 396 356.044 396H320V356.4Z" fill="#20D28B"/>
<path d="M360 59.3999H60V138.6H360V59.3999Z" fill="#013C5A"/>
<path d="M100 217.8H60V396H100V217.8Z" fill="#F4A258"/>
<path d="M160 217.8H120V396H160V217.8Z" fill="#E15753"/>
<path d="M300 217.8H180V396H300V217.8Z" fill="#013C5A"/>
<path d="M88.1318 19.7998H31.8681C25.3135 19.7998 20 25.1187 20 31.6798V63.3598C20 69.921 25.3135 75.2398 31.8681 75.2398H88.1318C94.6864 75.2398 99.9999 69.921 99.9999 63.3598V31.6798C99.9999 25.1187 94.6864 19.7998 88.1318 19.7998Z" fill="#FFF4E9"/>
<path d="M86.1198 22.9678H33.8825C27.9834 22.9678 23.2012 27.7547 23.2012 33.6598V61.3798C23.2012 67.2848 27.9834 72.0718 33.8825 72.0718H86.1198C92.019 72.0718 96.8012 67.2848 96.8012 61.3798V33.6598C96.8012 27.7547 92.019 22.9678 86.1198 22.9678Z" stroke="#013C5A" stroke-dasharray="2 2"/>
<path d="M59.9999 26.9282L81.4775 63.7562H38.5225L59.9999 26.9282Z" fill="#E15753" fill-opacity="0.6"/>
<path d="M28.875 51.4802L34.5272 38.4434H34.6633L40.3156 51.4802H37.4554L33.8462 42.3118L35.6337 41.0848L31.3095 51.4802H28.875ZM32.7396 46.9471H36.502L37.3703 49.0262H31.9735L32.7396 46.9471ZM48.0019 51.4802V46.1121H46.7421V43.9989H48.0019V41.4086C48.0019 40.4316 48.2799 39.6363 48.8361 39.0228C49.4035 38.3979 50.2208 38.0854 51.2876 38.0854C51.6054 38.0854 51.9572 38.1366 52.3432 38.2389C52.7404 38.3298 53.0865 38.4831 53.3817 38.699L52.3772 40.4202C52.2637 40.2725 52.1275 40.1759 51.9686 40.1305C51.8211 40.0737 51.6792 40.0453 51.543 40.0453C51.2025 40.0453 50.9245 40.1589 50.7088 40.3861C50.4932 40.6134 50.3854 40.9769 50.3854 41.4768V43.9989H52.6326V46.1121H50.3854V51.4802H48.0019ZM57.3024 51.6847C56.61 51.6847 55.9802 51.5484 55.4127 51.2757C54.8566 50.9917 54.4139 50.56 54.0847 49.9806C53.7556 49.4011 53.591 48.6627 53.591 47.7651C53.591 46.9244 53.7613 46.1974 54.1017 45.5838C54.4423 44.9703 54.8906 44.4988 55.4467 44.1694C56.0029 43.8286 56.593 43.6581 57.2173 43.6581C57.955 43.6581 58.5111 43.7831 58.8857 44.0331C59.2716 44.2716 59.5893 44.5386 59.839 44.834L59.7369 45.1237L59.9583 44.0331H62.1714V51.4802H59.788V49.8613L59.9753 50.3725C59.9526 50.3725 59.8845 50.4406 59.771 50.577C59.6575 50.702 59.4872 50.8553 59.2602 51.0372C59.0446 51.2075 58.7722 51.3553 58.443 51.4802C58.1253 51.6165 57.745 51.6847 57.3024 51.6847ZM57.9834 49.7419C58.2671 49.7419 58.5225 49.7022 58.7495 49.6227C58.9765 49.5318 59.1751 49.4069 59.3453 49.2477C59.5156 49.0774 59.6631 48.8672 59.788 48.6172V46.7938C59.6972 46.5439 59.561 46.3337 59.3794 46.1632C59.1978 45.9815 58.9822 45.8451 58.7325 45.7542C58.4827 45.652 58.2047 45.6009 57.8983 45.6009C57.5577 45.6009 57.24 45.6917 56.9449 45.8735C56.6611 46.0439 56.4341 46.2825 56.2639 46.5893C56.0936 46.8961 56.0086 47.2483 56.0086 47.6458C56.0086 48.0435 56.0993 48.4014 56.2809 48.7195C56.4625 49.0376 56.7009 49.2875 56.996 49.4693C57.3024 49.6511 57.6316 49.7419 57.9834 49.7419ZM65.785 45.9758C65.3765 45.9758 65.0189 45.828 64.7125 45.5327C64.406 45.2373 64.2528 44.8396 64.2528 44.3398V43.3172H66.0404V43.5559C66.0404 43.7944 66.0802 43.9364 66.1596 43.9819C66.2504 44.0159 66.4036 44.0331 66.6192 44.0331H71.3351L67.2151 50.0317L66.7725 49.5375H71.284V51.4802H63.7421L67.9812 45.2941L68.3388 45.9758H65.785ZM77.1824 51.6847C76.2744 51.6847 75.5026 51.5143 74.867 51.1735C74.2428 50.8326 73.7661 50.3611 73.437 49.7591C73.1078 49.1569 72.9433 48.4638 72.9433 47.68C72.9433 46.9301 73.1362 46.2541 73.522 45.652C73.908 45.0498 74.4244 44.5726 75.0713 44.2205C75.7183 43.8569 76.439 43.6751 77.2334 43.6751C78.3003 43.6751 79.174 43.9876 79.8552 44.6125C80.5475 45.226 80.9961 46.1178 81.2002 47.288L75.4118 49.1285L74.884 47.8333L79.0721 46.4189L78.5784 46.6404C78.4876 46.345 78.323 46.0894 78.0847 45.8735C77.8577 45.6463 77.5116 45.5327 77.0462 45.5327C76.6943 45.5327 76.3822 45.6179 76.1098 45.7883C75.8487 45.9474 75.6445 46.1802 75.4969 46.487C75.3607 46.7824 75.2926 47.1346 75.2926 47.5436C75.2926 48.0094 75.3777 48.4014 75.548 48.7195C75.7183 49.0262 75.9509 49.2591 76.246 49.4182C76.5411 49.5772 76.8703 49.6568 77.2334 49.6568C77.4945 49.6568 77.7442 49.6113 77.9826 49.5204C78.2323 49.4296 78.4763 49.3102 78.7146 49.1626L79.7697 50.9349C79.3726 51.1621 78.9416 51.3439 78.4763 51.4802C78.0223 51.6165 77.591 51.6847 77.1824 51.6847ZM85.0772 44.0331L85.2987 46.078L85.2473 45.7713C85.4633 45.3282 85.7584 44.9533 86.1326 44.6465C86.5077 44.3284 86.8764 44.0841 87.2395 43.9137C87.6138 43.7433 87.8978 43.6581 88.0909 43.6581L87.9714 46.0439C87.4152 45.9758 86.9389 46.0667 86.5417 46.3166C86.1445 46.5666 85.8375 46.8961 85.6223 47.305C85.4063 47.714 85.2987 48.1343 85.2987 48.5661V51.4802H82.9322V44.0331H85.0772ZM89.3022 38.4434H91.4298V48.089H89.3022V38.4434ZM90.4257 51.7188C90.0167 51.7188 89.682 51.6109 89.4209 51.395C89.1598 51.1678 89.0293 50.8724 89.0293 50.5088C89.0293 50.1566 89.1598 49.8613 89.4209 49.6227C89.6939 49.3841 90.0286 49.2648 90.4257 49.2648C90.8229 49.2648 91.1465 49.3841 91.3958 49.6227C91.6569 49.8613 91.7874 50.1566 91.7874 50.5088C91.7874 50.8724 91.6632 51.1678 91.4132 51.395C91.1632 51.6109 90.834 51.7188 90.4257 51.7188Z" fill="#00111A"/>
<path d="M256 238.392C273.673 238.392 288 224.209 288 206.712C288 189.216 273.673 175.032 256 175.032C238.327 175.032 224 189.216 224 206.712C224 224.209 238.327 238.392 256 238.392Z" fill="#FFF4E9"/>
<path d="M255.999 235.224C271.905 235.224 284.799 222.459 284.799 206.712C284.799 190.965 271.905 178.2 255.999 178.2C240.093 178.2 227.199 190.965 227.199 206.712C227.199 222.459 240.093 235.224 255.999 235.224Z" stroke="#013C5A" stroke-dasharray="2 2"/>
<path d="M239.2 212.173L250.196 222.696L272.8 192.456" stroke="#20D28B" stroke-opacity="0.7" stroke-width="6.10909" stroke-linecap="round" stroke-linejoin="round"/>
<path d="M237.621 209.233C237.536 209.304 237.377 209.399 237.144 209.52C236.918 209.64 236.639 209.745 236.307 209.837C235.975 209.929 235.608 209.972 235.205 209.965C234.591 209.95 234.04 209.841 233.553 209.636C233.072 209.424 232.663 209.138 232.324 208.777C231.992 208.416 231.738 208.003 231.561 207.536C231.385 207.07 231.297 206.572 231.297 206.041C231.297 205.448 231.385 204.903 231.561 204.408C231.745 203.914 232.003 203.486 232.335 203.125C232.674 202.765 233.076 202.486 233.542 202.288C234.008 202.09 234.524 201.991 235.089 201.991C235.611 201.991 236.074 202.061 236.477 202.203C236.879 202.344 237.207 202.496 237.462 202.658L236.858 204.112C236.681 203.977 236.444 203.839 236.149 203.698C235.859 203.549 235.524 203.475 235.142 203.475C234.845 203.475 234.559 203.539 234.284 203.666C234.015 203.786 233.776 203.96 233.564 204.185C233.359 204.412 233.197 204.677 233.076 204.981C232.956 205.278 232.896 205.603 232.896 205.956C232.896 206.331 232.949 206.674 233.055 206.985C233.168 207.296 233.327 207.565 233.532 207.791C233.736 208.01 233.98 208.179 234.262 208.3C234.552 208.42 234.877 208.48 235.237 208.48C235.654 208.48 236.011 208.413 236.307 208.278C236.603 208.145 236.83 208.003 236.985 207.855L237.621 209.233ZM238.555 207.505C238.555 207.031 238.665 206.607 238.884 206.232C239.11 205.857 239.424 205.564 239.827 205.352C240.23 205.133 240.692 205.023 241.215 205.023C241.744 205.023 242.203 205.133 242.591 205.352C242.98 205.564 243.277 205.857 243.481 206.232C243.694 206.607 243.8 207.031 243.8 207.505C243.8 207.978 243.694 208.406 243.481 208.788C243.277 209.162 242.98 209.459 242.591 209.679C242.203 209.897 241.737 210.007 241.193 210.007C240.685 210.007 240.23 209.908 239.827 209.71C239.431 209.512 239.12 209.226 238.895 208.851C238.669 208.476 238.555 208.027 238.555 207.505ZM240.049 207.515C240.049 207.756 240.099 207.975 240.198 208.172C240.297 208.363 240.431 208.515 240.6 208.629C240.77 208.742 240.961 208.798 241.172 208.798C241.405 208.798 241.606 208.742 241.776 208.629C241.946 208.515 242.076 208.363 242.168 208.172C242.26 207.975 242.306 207.756 242.306 207.515C242.306 207.268 242.26 207.048 242.168 206.858C242.076 206.667 241.946 206.515 241.776 206.402C241.606 206.289 241.405 206.232 241.172 206.232C240.961 206.232 240.77 206.289 240.6 206.402C240.431 206.515 240.297 206.667 240.198 206.858C240.099 207.048 240.049 207.268 240.049 207.515ZM246.313 205.246L246.43 206.073L246.408 205.999C246.57 205.709 246.801 205.476 247.097 205.299C247.393 205.115 247.757 205.023 248.188 205.023C248.626 205.023 248.99 205.154 249.279 205.415C249.575 205.67 249.727 206.002 249.734 206.412V209.88H248.252V206.964C248.245 206.759 248.188 206.596 248.082 206.476C247.983 206.349 247.813 206.285 247.574 206.285C247.347 206.285 247.15 206.359 246.98 206.508C246.811 206.656 246.68 206.858 246.589 207.113C246.497 207.367 246.451 207.66 246.451 207.993V209.88H244.967V205.246H246.313ZM255.187 209.466C254.982 209.629 254.725 209.759 254.414 209.858C254.111 209.957 253.81 210.007 253.514 210.007C252.984 210.007 252.521 209.912 252.126 209.721C251.738 209.523 251.434 209.244 251.215 208.883C251.003 208.515 250.897 208.073 250.897 207.558C250.897 207.041 251.014 206.603 251.246 206.243C251.48 205.876 251.784 205.596 252.158 205.405C252.539 205.214 252.938 205.119 253.355 205.119C253.771 205.119 254.132 205.175 254.435 205.289C254.746 205.402 255.011 205.55 255.229 205.734L254.509 206.688C254.41 206.61 254.273 206.533 254.096 206.454C253.927 206.37 253.725 206.328 253.493 206.328C253.288 206.328 253.1 206.381 252.931 206.487C252.762 206.593 252.627 206.738 252.528 206.922C252.429 207.106 252.38 207.317 252.38 207.558C252.38 207.784 252.433 207.993 252.539 208.183C252.645 208.374 252.79 208.526 252.974 208.64C253.164 208.745 253.387 208.798 253.641 208.798C253.803 208.798 253.952 208.777 254.086 208.735C254.227 208.686 254.347 208.618 254.446 208.533L255.187 209.466ZM256.326 201.513H257.809V209.88H256.326V201.513ZM260.83 210.102C260.413 210.102 260.064 209.975 259.781 209.721C259.499 209.459 259.351 209.124 259.337 208.713V205.246H260.82V208.162C260.833 208.367 260.886 208.533 260.978 208.66C261.07 208.781 261.226 208.841 261.444 208.841C261.663 208.841 261.851 208.766 262.006 208.618C262.168 208.469 262.292 208.268 262.377 208.014C262.469 207.752 262.515 207.459 262.515 207.133V205.246H263.998V209.88H262.652L262.536 209.032L262.557 209.127C262.451 209.318 262.317 209.488 262.155 209.636C261.992 209.784 261.798 209.897 261.572 209.975C261.353 210.06 261.106 210.102 260.83 210.102ZM265.523 205.246H267.006V209.88H265.523V205.246ZM267.843 203.263L266.275 204.695H265.374L266.201 203.263H267.843ZM270.419 210.007C269.988 210.007 269.603 209.908 269.264 209.71C268.925 209.505 268.657 209.212 268.459 208.83C268.268 208.449 268.173 207.996 268.173 207.473C268.173 206.949 268.279 206.504 268.491 206.137C268.703 205.769 268.992 205.49 269.36 205.299C269.727 205.108 270.144 205.013 270.61 205.013C270.906 205.013 271.189 205.059 271.457 205.151C271.732 205.243 271.962 205.384 272.145 205.575V206.041V201.513H273.618V209.88H272.135V208.979L272.251 209.297C272.012 209.495 271.743 209.664 271.446 209.805C271.15 209.94 270.807 210.007 270.419 210.007ZM270.906 208.756C271.104 208.756 271.277 208.731 271.425 208.682C271.58 208.625 271.715 208.547 271.827 208.449C271.948 208.343 272.05 208.212 272.135 208.056V206.922C272.078 206.766 271.99 206.635 271.87 206.529C271.757 206.416 271.616 206.331 271.446 206.275C271.284 206.211 271.104 206.179 270.906 206.179C270.687 206.179 270.482 206.236 270.292 206.349C270.108 206.454 269.96 206.603 269.847 206.794C269.734 206.985 269.678 207.204 269.678 207.452C269.678 207.699 269.734 207.922 269.847 208.119C269.96 208.317 270.108 208.473 270.292 208.587C270.482 208.699 270.687 208.756 270.906 208.756ZM274.783 207.505C274.783 207.031 274.893 206.607 275.112 206.232C275.338 205.857 275.652 205.564 276.055 205.352C276.457 205.133 276.92 205.023 277.443 205.023C277.972 205.023 278.431 205.133 278.819 205.352C279.208 205.564 279.504 205.857 279.709 206.232C279.921 206.607 280.027 207.031 280.027 207.505C280.027 207.978 279.921 208.406 279.709 208.788C279.504 209.162 279.208 209.459 278.819 209.679C278.431 209.897 277.965 210.007 277.421 210.007C276.912 210.007 276.457 209.908 276.055 209.71C275.659 209.512 275.348 209.226 275.123 208.851C274.896 208.476 274.783 208.027 274.783 207.505ZM276.277 207.515C276.277 207.756 276.326 207.975 276.425 208.172C276.524 208.363 276.658 208.515 276.828 208.629C276.997 208.742 277.188 208.798 277.4 208.798C277.633 208.798 277.834 208.742 278.003 208.629C278.174 208.515 278.304 208.363 278.396 208.172C278.488 207.975 278.534 207.756 278.534 207.515C278.534 207.268 278.488 207.048 278.396 206.858C278.304 206.667 278.174 206.515 278.003 206.402C277.834 206.289 277.633 206.232 277.4 206.232C277.188 206.232 276.997 206.289 276.828 206.402C276.658 206.515 276.524 206.667 276.425 206.858C276.326 207.048 276.277 207.268 276.277 207.515Z" fill="#013C5A"/>
<path d="M138.531 348.48H82.2675C75.713 348.48 70.3994 353.799 70.3994 360.36V376.2C70.3994 382.761 75.713 388.08 82.2675 388.08H138.531C145.086 388.08 150.399 382.761 150.399 376.2V360.36C150.399 353.799 145.086 348.48 138.531 348.48Z" fill="#FFF4E9"/>
<path d="M136.282 350.064H84.5193C78.489 350.064 73.6006 354.957 73.6006 360.994V375.566C73.6006 381.603 78.489 386.496 84.5193 386.496H136.282C142.312 386.496 147.201 381.603 147.201 375.566V360.994C147.201 354.957 142.312 350.064 136.282 350.064Z" stroke="#013C5A" stroke-dasharray="2 2"/>
<path d="M110.399 361.237V368.904L116.658 375.322" stroke="#F4B031" stroke-opacity="0.5" stroke-width="2.25109" stroke-linecap="round"/>
<path d="M110.4 382.008C118.058 382.008 124.266 375.862 124.266 368.28C124.266 360.698 118.058 354.552 110.4 354.552C102.741 354.552 96.533 360.698 96.533 368.28C96.533 375.862 102.741 382.008 110.4 382.008Z" stroke="#F4B031" stroke-opacity="0.5" stroke-width="2.53042" stroke-linejoin="round"/>
<path d="M102.42 355.381H108.402V357.052H104.148V358.925H107.914V360.594H104.148V362.491H108.569V364.161H102.42V355.381ZM111.596 358.949L111.728 359.867L111.704 359.795C111.911 359.445 112.169 359.175 112.479 358.984C112.789 358.785 113.161 358.686 113.599 358.686C113.885 358.686 114.135 358.726 114.35 358.805C114.572 358.884 114.759 359.004 114.91 359.163C115.06 359.314 115.164 359.513 115.219 359.76L115.16 359.771C115.382 359.445 115.648 359.183 115.958 358.984C116.276 358.785 116.606 358.686 116.947 358.686C117.464 358.686 117.873 358.833 118.175 359.128C118.485 359.413 118.644 359.787 118.652 360.249V364.161H116.995V360.94C116.987 360.71 116.951 360.523 116.888 360.38C116.825 360.228 116.678 360.145 116.447 360.129C116.177 360.129 115.947 360.224 115.756 360.415C115.573 360.598 115.434 360.837 115.339 361.131C115.251 361.418 115.208 361.716 115.208 362.026V364.161H113.539V360.94C113.531 360.71 113.487 360.523 113.408 360.38C113.336 360.228 113.186 360.145 112.955 360.129C112.693 360.129 112.471 360.224 112.288 360.415C112.113 360.598 111.978 360.833 111.883 361.119C111.795 361.406 111.752 361.7 111.752 362.002V364.161H110.083V358.949H111.596ZM86.9479 378.561C86.6378 378.561 86.3324 378.505 86.0301 378.394C85.7366 378.274 85.4897 378.107 85.2911 377.892L85.3386 377.404V380.923H83.6826V373.085H85.1123L85.3505 374.099L85.2199 373.741C85.4897 373.51 85.792 373.319 86.1259 373.169C86.459 373.018 86.8443 372.942 87.2818 372.942C87.766 372.942 88.1988 373.057 88.5802 373.288C88.9616 373.51 89.2598 373.837 89.4743 374.266C89.6966 374.687 89.8082 375.196 89.8082 375.793C89.8082 376.381 89.6847 376.883 89.4387 377.296C89.1926 377.709 88.8548 378.024 88.4259 378.238C87.9963 378.453 87.5042 378.561 86.9479 378.561ZM86.614 377.248C86.8838 377.248 87.1307 377.189 87.353 377.069C87.5833 376.95 87.766 376.783 87.9013 376.568C88.0446 376.346 88.1158 376.095 88.1158 375.817C88.1158 375.523 88.0525 375.268 87.9251 375.053C87.8056 374.831 87.6387 374.659 87.4242 374.541C87.2177 374.413 86.9875 374.35 86.7335 374.35C86.5112 374.35 86.3126 374.381 86.1377 374.445C85.9708 374.501 85.8197 374.588 85.6844 374.708C85.5578 374.819 85.4462 374.962 85.3505 375.137V376.413C85.4146 376.58 85.5056 376.727 85.625 376.855C85.7445 376.982 85.8869 377.081 86.0539 377.153C86.2287 377.217 86.4155 377.248 86.614 377.248ZM92.6209 373.205L92.776 374.636L92.7396 374.421C92.8907 374.111 93.0972 373.848 93.3599 373.634C93.6218 373.411 93.8797 373.24 94.1345 373.121C94.3964 373.002 94.595 372.942 94.7303 372.942L94.6464 374.612C94.2571 374.564 93.924 374.628 93.6455 374.803C93.3678 374.978 93.1534 375.208 93.0023 375.495C92.8511 375.781 92.776 376.076 92.776 376.377V378.417H91.1192V373.205H92.6209ZM95.3688 375.745C95.3688 375.212 95.4922 374.735 95.7383 374.314C95.993 373.892 96.3467 373.563 96.7993 373.323C97.2518 373.077 97.7725 372.953 98.3603 372.953C98.9561 372.953 99.4728 373.077 99.9095 373.323C100.346 373.563 100.68 373.892 100.91 374.314C101.149 374.735 101.268 375.212 101.268 375.745C101.268 376.278 101.149 376.759 100.91 377.189C100.68 377.61 100.346 377.944 99.9095 378.191C99.4728 378.437 98.9482 378.561 98.3366 378.561C97.7646 378.561 97.2518 378.449 96.7993 378.227C96.3546 378.004 96.0049 377.682 95.7501 377.26C95.4962 376.839 95.3688 376.334 95.3688 375.745ZM97.0493 375.757C97.0493 376.027 97.1055 376.274 97.2162 376.497C97.3278 376.712 97.4781 376.883 97.6688 377.01C97.8595 377.137 98.0747 377.201 98.3129 377.201C98.5747 377.201 98.801 377.137 98.9917 377.01C99.1824 376.883 99.3296 376.712 99.4332 376.497C99.5361 376.274 99.5875 376.027 99.5875 375.757C99.5875 375.479 99.5361 375.232 99.4332 375.017C99.3296 374.803 99.1824 374.632 98.9917 374.505C98.801 374.377 98.5747 374.314 98.3129 374.314C98.0747 374.314 97.8595 374.377 97.6688 374.505C97.4781 374.632 97.3278 374.803 97.2162 375.017C97.1055 375.232 97.0493 375.479 97.0493 375.757ZM105.275 381.042C104.807 381.042 104.41 380.986 104.084 380.875C103.767 380.763 103.496 380.628 103.274 380.47C103.051 380.31 102.853 380.159 102.678 380.016L103.655 378.871C103.838 379.038 104.048 379.197 104.286 379.348C104.533 379.507 104.855 379.586 105.252 379.586C105.514 379.586 105.757 379.539 105.979 379.443C106.209 379.356 106.392 379.225 106.527 379.049C106.67 378.874 106.742 378.656 106.742 378.394V377.248L106.801 377.546C106.674 377.817 106.444 378.056 106.11 378.262C105.776 378.461 105.34 378.561 104.799 378.561C104.331 378.561 103.893 378.441 103.488 378.203C103.091 377.957 102.773 377.626 102.535 377.213C102.297 376.791 102.177 376.314 102.177 375.781C102.177 375.232 102.305 374.747 102.558 374.326C102.813 373.896 103.142 373.559 103.547 373.311C103.953 373.065 104.382 372.942 104.835 372.942C105.288 372.942 105.677 373.01 106.003 373.144C106.337 373.272 106.587 373.431 106.753 373.622L106.694 373.777L106.873 373.205H108.41V378.417C108.41 378.927 108.267 379.376 107.981 379.765C107.695 380.163 107.314 380.474 106.837 380.696C106.368 380.927 105.848 381.042 105.275 381.042ZM103.858 375.733C103.858 376.011 103.921 376.262 104.048 376.485C104.176 376.708 104.347 376.883 104.561 377.01C104.783 377.137 105.029 377.201 105.3 377.201C105.53 377.201 105.733 377.172 105.908 377.117C106.09 377.054 106.249 376.966 106.384 376.855C106.527 376.735 106.647 376.588 106.742 376.413V375.137C106.67 374.962 106.563 374.815 106.42 374.696C106.277 374.568 106.11 374.473 105.92 374.409C105.737 374.338 105.53 374.301 105.3 374.301C105.029 374.301 104.783 374.366 104.561 374.492C104.347 374.612 104.176 374.779 104.048 374.994C103.921 375.208 103.858 375.455 103.858 375.733ZM111.626 373.205L111.781 374.636L111.744 374.421C111.896 374.111 112.102 373.848 112.365 373.634C112.627 373.411 112.885 373.24 113.139 373.121C113.401 373.002 113.6 372.942 113.735 372.942L113.651 374.612C113.262 374.564 112.929 374.628 112.65 374.803C112.373 374.978 112.158 375.208 112.007 375.495C111.856 375.781 111.781 376.076 111.781 376.377V378.417H110.124V373.205H111.626ZM117.341 378.561C116.706 378.561 116.166 378.441 115.72 378.203C115.283 377.964 114.95 377.634 114.719 377.213C114.489 376.791 114.374 376.306 114.374 375.757C114.374 375.232 114.509 374.759 114.779 374.338C115.049 373.916 115.411 373.582 115.863 373.335C116.317 373.081 116.821 372.953 117.377 372.953C118.124 372.953 118.736 373.173 119.213 373.61C119.697 374.039 120.011 374.663 120.154 375.483L116.102 376.771L115.733 375.865L118.664 374.874L118.319 375.029C118.255 374.823 118.14 374.644 117.973 374.492C117.814 374.334 117.572 374.254 117.246 374.254C117 374.254 116.781 374.314 116.591 374.433C116.408 374.545 116.265 374.708 116.162 374.922C116.066 375.129 116.019 375.375 116.019 375.662C116.019 375.988 116.078 376.262 116.197 376.485C116.317 376.7 116.479 376.863 116.686 376.974C116.893 377.085 117.123 377.141 117.377 377.141C117.56 377.141 117.735 377.109 117.902 377.046C118.076 376.982 118.247 376.898 118.414 376.795L119.153 378.036C118.875 378.195 118.573 378.322 118.247 378.417C117.929 378.513 117.627 378.561 117.341 378.561ZM123.059 378.524C122.629 378.524 122.228 378.449 121.854 378.298C121.49 378.147 121.18 377.936 120.926 377.666L121.616 376.747C121.871 376.978 122.105 377.145 122.32 377.248C122.542 377.344 122.741 377.392 122.915 377.392C123.051 377.392 123.169 377.38 123.273 377.355C123.384 377.324 123.472 377.28 123.535 377.225C123.599 377.161 123.631 377.081 123.631 376.986C123.631 376.851 123.575 376.743 123.464 376.664C123.36 376.584 123.226 376.521 123.059 376.473C122.892 376.418 122.713 376.361 122.522 376.306C122.045 376.155 121.7 375.936 121.486 375.65C121.278 375.356 121.176 375.037 121.176 374.696C121.176 374.433 121.243 374.171 121.378 373.908C121.521 373.638 121.744 373.415 122.045 373.24C122.355 373.057 122.752 372.966 123.238 372.966C123.674 372.966 124.044 373.01 124.345 373.097C124.647 373.185 124.934 373.327 125.204 373.526L124.572 374.505C124.421 374.385 124.25 374.286 124.06 374.206C123.877 374.119 123.706 374.071 123.547 374.063C123.404 374.055 123.281 374.071 123.177 374.111C123.082 374.151 123.006 374.202 122.951 374.266C122.896 374.33 122.868 374.397 122.868 374.469C122.86 374.62 122.915 374.739 123.035 374.827C123.162 374.914 123.321 374.982 123.511 375.029C123.702 375.078 123.889 375.133 124.071 375.196C124.325 375.276 124.544 375.383 124.727 375.519C124.909 375.654 125.049 375.817 125.144 376.007C125.247 376.19 125.299 376.413 125.299 376.676C125.299 376.994 125.216 377.296 125.049 377.583C124.89 377.861 124.643 378.087 124.31 378.262C123.984 378.437 123.567 378.524 123.059 378.524ZM128.389 378.524C127.959 378.524 127.558 378.449 127.185 378.298C126.819 378.147 126.51 377.936 126.255 377.666L126.947 376.747C127.201 376.978 127.436 377.145 127.65 377.248C127.872 377.344 128.071 377.392 128.246 377.392C128.38 377.392 128.5 377.38 128.603 377.355C128.714 377.324 128.802 377.28 128.865 377.225C128.929 377.161 128.96 377.081 128.96 376.986C128.96 376.851 128.905 376.743 128.794 376.664C128.691 376.584 128.555 376.521 128.389 376.473C128.222 376.418 128.043 376.361 127.853 376.306C127.376 376.155 127.03 375.936 126.815 375.65C126.609 375.356 126.506 375.037 126.506 374.696C126.506 374.433 126.573 374.171 126.709 373.908C126.851 373.638 127.074 373.415 127.376 373.24C127.686 373.057 128.083 372.966 128.567 372.966C129.005 372.966 129.374 373.01 129.676 373.097C129.978 373.185 130.263 373.327 130.534 373.526L129.902 374.505C129.752 374.385 129.581 374.286 129.39 374.206C129.207 374.119 129.036 374.071 128.877 374.063C128.734 374.055 128.611 374.071 128.508 374.111C128.413 374.151 128.337 374.202 128.281 374.266C128.226 374.33 128.198 374.397 128.198 374.469C128.19 374.62 128.246 374.739 128.365 374.827C128.492 374.914 128.651 374.982 128.842 375.029C129.032 375.078 129.219 375.133 129.402 375.196C129.656 375.276 129.874 375.383 130.057 375.519C130.24 375.654 130.379 375.817 130.474 376.007C130.578 376.19 130.629 376.413 130.629 376.676C130.629 376.994 130.546 377.296 130.379 377.583C130.22 377.861 129.974 378.087 129.64 378.262C129.314 378.437 128.897 378.524 128.389 378.524ZM131.621 375.745C131.621 375.212 131.745 374.735 131.991 374.314C132.245 373.892 132.598 373.563 133.052 373.323C133.504 373.077 134.025 372.953 134.613 372.953C135.208 372.953 135.725 373.077 136.162 373.323C136.599 373.563 136.933 373.892 137.163 374.314C137.401 374.735 137.52 375.212 137.52 375.745C137.52 376.278 137.401 376.759 137.163 377.189C136.933 377.61 136.599 377.944 136.162 378.191C135.725 378.437 135.201 378.561 134.589 378.561C134.017 378.561 133.504 378.449 133.052 378.227C132.606 378.004 132.257 377.682 132.003 377.26C131.749 376.839 131.621 376.334 131.621 375.745ZM133.302 375.757C133.302 376.027 133.357 376.274 133.469 376.497C133.58 376.712 133.731 376.883 133.921 377.01C134.112 377.137 134.326 377.201 134.565 377.201C134.827 377.201 135.053 377.137 135.244 377.01C135.435 376.883 135.582 376.712 135.686 376.497C135.788 376.274 135.84 376.027 135.84 375.757C135.84 375.479 135.788 375.232 135.686 375.017C135.582 374.803 135.435 374.632 135.244 374.505C135.053 374.377 134.827 374.314 134.565 374.314C134.326 374.314 134.112 374.377 133.921 374.505C133.731 374.632 133.58 374.803 133.469 375.017C133.357 375.232 133.302 375.479 133.302 375.757Z" fill="#00111A"/>
<path d="M78.5322 225.72H22.2685C15.7139 225.72 10.4004 231.039 10.4004 237.6V253.44C10.4004 260.001 15.7139 265.32 22.2685 265.32H78.5322C85.0868 265.32 90.4003 260.001 90.4003 253.44V237.6C90.4003 231.039 85.0868 225.72 78.5322 225.72Z" fill="#FFF4E9"/>
<path d="M76.2809 227.304H24.5183C18.4881 227.304 13.5996 232.198 13.5996 238.234V252.807C13.5996 258.843 18.4881 263.736 24.5183 263.736H76.2809C82.3111 263.736 87.1996 258.843 87.1996 252.807V238.234C87.1996 232.198 82.3111 227.304 76.2809 227.304Z" stroke="#013C5A" stroke-dasharray="2 2"/>
<path d="M50.3987 238.478V246.144L56.6567 252.562" stroke="#F4B031" stroke-opacity="0.5" stroke-width="2.25109" stroke-linecap="round"/>
<path d="M50.3992 259.248C58.0576 259.248 64.2659 253.102 64.2659 245.52C64.2659 237.938 58.0576 231.792 50.3992 231.792C42.7408 231.792 36.5325 237.938 36.5325 245.52C36.5325 253.102 42.7408 259.248 50.3992 259.248Z" stroke="#F4B031" stroke-opacity="0.5" stroke-width="2.53042" stroke-linejoin="round"/>
<path d="M42.4203 232.622H48.4028V234.292H44.1483V236.165H47.9143V237.835H44.1483V239.731H48.5697V241.402H42.4203V232.622ZM51.5969 236.189L51.728 237.107L51.7041 237.035C51.9107 236.685 52.1689 236.415 52.4787 236.224C52.7886 236.026 53.162 235.926 53.5989 235.926C53.885 235.926 54.1352 235.966 54.3498 236.045C54.5722 236.125 54.7589 236.244 54.9099 236.403C55.0608 236.555 55.1641 236.753 55.2197 237L55.1601 237.012C55.3826 236.685 55.6487 236.423 55.9586 236.224C56.2764 236.026 56.6061 235.926 56.9477 235.926C57.4641 235.926 57.8733 236.073 58.1752 236.368C58.485 236.654 58.6439 237.027 58.6519 237.489V241.402H56.9954V238.181C56.9874 237.95 56.9517 237.763 56.8881 237.62C56.8246 237.469 56.6776 237.385 56.4472 237.37C56.1771 237.37 55.9467 237.465 55.756 237.656C55.5732 237.839 55.4342 238.078 55.3389 238.372C55.2515 238.658 55.2078 238.956 55.2078 239.266V241.402H53.5394V238.181C53.5314 237.95 53.4878 237.763 53.4083 237.62C53.3368 237.469 53.1858 237.385 52.9554 237.37C52.6932 237.37 52.4708 237.465 52.2881 237.656C52.1133 237.839 51.9782 238.074 51.8829 238.36C51.7955 238.646 51.7518 238.94 51.7518 239.243V241.402H50.0834V236.189H51.5969ZM26.9479 255.801C26.6381 255.801 26.3322 255.745 26.0303 255.634C25.7364 255.514 25.4901 255.347 25.2915 255.133L25.3391 254.644V258.163H23.6826V250.325H25.1126L25.351 251.339L25.2199 250.982C25.4901 250.75 25.792 250.56 26.1256 250.409C26.4594 250.258 26.8447 250.182 27.2817 250.182C27.7663 250.182 28.1992 250.297 28.5806 250.528C28.962 250.75 29.2599 251.077 29.4744 251.506C29.6968 251.927 29.8081 252.437 29.8081 253.033C29.8081 253.621 29.685 254.123 29.4387 254.536C29.1924 254.95 28.8547 255.264 28.4257 255.479C27.9967 255.693 27.5041 255.801 26.9479 255.801ZM26.6143 254.489C26.8844 254.489 27.1307 254.429 27.3531 254.31C27.5835 254.19 27.7663 254.023 27.9013 253.808C28.0443 253.586 28.1158 253.336 28.1158 253.057C28.1158 252.763 28.0523 252.509 27.9252 252.293C27.806 252.071 27.6391 251.9 27.4246 251.781C27.2181 251.653 26.9877 251.59 26.7334 251.59C26.511 251.59 26.3124 251.622 26.1376 251.685C25.9707 251.741 25.8198 251.828 25.6847 251.948C25.5576 252.059 25.4464 252.202 25.351 252.377V253.653C25.4146 253.82 25.506 253.968 25.6251 254.095C25.7443 254.222 25.8873 254.322 26.0542 254.393C26.229 254.457 26.4156 254.489 26.6143 254.489ZM32.6208 250.445L32.7758 251.876L32.7401 251.661C32.891 251.351 33.0975 251.089 33.3597 250.874C33.6219 250.651 33.8801 250.48 34.1343 250.361C34.3965 250.242 34.5951 250.182 34.7302 250.182L34.6468 251.852C34.2575 251.805 33.9238 251.868 33.6458 252.043C33.3676 252.218 33.1531 252.449 33.0022 252.735C32.8512 253.021 32.7758 253.316 32.7758 253.618V255.658H31.1193V250.445H32.6208ZM35.3692 252.985C35.3692 252.452 35.4924 251.976 35.7387 251.554C35.993 251.132 36.3465 250.803 36.7994 250.564C37.2522 250.317 37.7726 250.194 38.3605 250.194C38.9564 250.194 39.4728 250.317 39.9098 250.564C40.3467 250.803 40.6804 251.132 40.9108 251.554C41.1492 251.976 41.2683 252.452 41.2683 252.985C41.2683 253.519 41.1492 253.999 40.9108 254.429C40.6804 254.851 40.3467 255.184 39.9098 255.431C39.4728 255.678 38.9484 255.801 38.3367 255.801C37.7646 255.801 37.2522 255.689 36.7994 255.467C36.3545 255.244 36.0049 254.922 35.7506 254.501C35.4964 254.079 35.3692 253.574 35.3692 252.985ZM37.0496 252.997C37.0496 253.267 37.1052 253.515 37.2165 253.737C37.3277 253.952 37.4786 254.123 37.6693 254.25C37.86 254.377 38.0745 254.441 38.3129 254.441C38.5751 254.441 38.8014 254.377 38.9921 254.25C39.1828 254.123 39.3298 253.952 39.4331 253.737C39.5364 253.515 39.588 253.267 39.588 252.997C39.588 252.719 39.5364 252.472 39.4331 252.258C39.3298 252.043 39.1828 251.872 38.9921 251.745C38.8014 251.618 38.5751 251.554 38.3129 251.554C38.0745 251.554 37.86 251.618 37.6693 251.745C37.4786 251.872 37.3277 252.043 37.2165 252.258C37.1052 252.472 37.0496 252.719 37.0496 252.997ZM45.276 258.282C44.8073 258.282 44.41 258.226 44.0843 258.115C43.7665 258.004 43.4964 257.868 43.2739 257.71C43.0514 257.551 42.8528 257.399 42.678 257.256L43.6553 256.111C43.8379 256.278 44.0485 256.437 44.2869 256.588C44.5332 256.748 44.8549 256.827 45.2522 256.827C45.5144 256.827 45.7566 256.779 45.9791 256.683C46.2095 256.596 46.3923 256.465 46.5273 256.29C46.6703 256.115 46.7418 255.896 46.7418 255.634V254.489L46.8014 254.787C46.6743 255.057 46.4439 255.296 46.1102 255.502C45.7765 255.701 45.3396 255.801 44.7993 255.801C44.3306 255.801 43.8936 255.681 43.4884 255.443C43.0911 255.197 42.7734 254.866 42.535 254.453C42.2967 254.031 42.1775 253.554 42.1775 253.021C42.1775 252.472 42.3046 251.988 42.5589 251.566C42.8131 251.136 43.1428 250.799 43.548 250.552C43.9531 250.305 44.3822 250.182 44.835 250.182C45.2879 250.182 45.6772 250.25 46.0029 250.385C46.3367 250.512 46.5869 250.671 46.7537 250.862L46.6941 251.017L46.8729 250.445H48.4103V255.658C48.4103 256.167 48.2672 256.616 47.9812 257.006C47.6952 257.403 47.3139 257.714 46.8372 257.936C46.3684 258.167 45.848 258.282 45.276 258.282ZM43.8578 252.974C43.8578 253.252 43.9214 253.503 44.0485 253.725C44.1756 253.948 44.3465 254.123 44.561 254.25C44.7834 254.377 45.0297 254.441 45.2999 254.441C45.5303 254.441 45.7328 254.413 45.9076 254.357C46.0904 254.294 46.2492 254.206 46.3843 254.095C46.5273 253.975 46.6465 253.828 46.7418 253.653V252.377C46.6703 252.202 46.563 252.055 46.4201 251.936C46.2771 251.809 46.1102 251.713 45.9195 251.649C45.7368 251.578 45.5303 251.542 45.2999 251.542C45.0297 251.542 44.7834 251.606 44.561 251.733C44.3465 251.852 44.1756 252.019 44.0485 252.234C43.9214 252.449 43.8578 252.695 43.8578 252.974ZM51.6257 250.445L51.7806 251.876L51.7448 251.661C51.8958 251.351 52.1024 251.089 52.3646 250.874C52.6267 250.651 52.8849 250.48 53.1392 250.361C53.4014 250.242 53.6 250.182 53.735 250.182L53.6516 251.852C53.2624 251.805 52.9286 251.868 52.6506 252.043C52.3725 252.218 52.158 252.449 52.007 252.735C51.8561 253.021 51.7806 253.316 51.7806 253.618V255.658H50.1241V250.445H51.6257ZM57.3415 255.801C56.7059 255.801 56.1657 255.681 55.7208 255.443C55.2838 255.205 54.9501 254.874 54.7197 254.453C54.4893 254.031 54.3741 253.546 54.3741 252.997C54.3741 252.472 54.5091 251.999 54.7793 251.578C55.0495 251.156 55.4109 250.823 55.8638 250.575C56.3167 250.321 56.8211 250.194 57.3773 250.194C58.1241 250.194 58.7359 250.413 59.2126 250.85C59.6972 251.28 60.011 251.904 60.154 252.723L56.1021 254.011L55.7327 253.105L58.6643 252.114L58.3187 252.27C58.2552 252.063 58.14 251.884 57.9731 251.733C57.8143 251.574 57.5719 251.494 57.2462 251.494C56.9999 251.494 56.7814 251.554 56.5907 251.673C56.408 251.785 56.265 251.948 56.1617 252.163C56.0664 252.369 56.0187 252.616 56.0187 252.902C56.0187 253.228 56.0783 253.503 56.1974 253.725C56.3167 253.94 56.4795 254.103 56.6861 254.214C56.8927 254.326 57.1231 254.381 57.3773 254.381C57.56 254.381 57.7348 254.349 57.9016 254.286C58.0764 254.222 58.2472 254.139 58.4141 254.035L59.1529 255.276C58.8749 255.435 58.5729 255.562 58.2472 255.658C57.9295 255.753 57.6275 255.801 57.3415 255.801ZM63.0586 255.765C62.6296 255.765 62.2284 255.689 61.855 255.538C61.4895 255.388 61.1797 255.176 60.9254 254.906L61.6166 253.987C61.8709 254.218 62.1053 254.385 62.3198 254.489C62.5422 254.584 62.7409 254.632 62.9156 254.632C63.0507 254.632 63.1699 254.62 63.2731 254.596C63.3844 254.564 63.4718 254.52 63.5353 254.465C63.5989 254.401 63.6307 254.322 63.6307 254.226C63.6307 254.091 63.575 253.983 63.4638 253.904C63.3605 253.824 63.2255 253.761 63.0586 253.713C62.8918 253.658 62.713 253.602 62.5223 253.546C62.0456 253.395 61.7 253.176 61.4855 252.89C61.279 252.596 61.1757 252.277 61.1757 251.936C61.1757 251.673 61.2433 251.411 61.3783 251.148C61.5213 250.878 61.7438 250.655 62.0456 250.48C62.3556 250.297 62.7527 250.206 63.2374 250.206C63.6743 250.206 64.0438 250.25 64.3457 250.337C64.6476 250.425 64.9336 250.568 65.2037 250.766L64.5721 251.745C64.4212 251.626 64.2503 251.526 64.0597 251.447C63.877 251.36 63.7061 251.311 63.5473 251.303C63.4042 251.295 63.2811 251.311 63.1778 251.351C63.0825 251.391 63.007 251.443 62.9514 251.506C62.8958 251.57 62.8679 251.638 62.8679 251.709C62.86 251.86 62.9157 251.98 63.0348 252.067C63.162 252.155 63.3208 252.222 63.5115 252.27C63.7022 252.318 63.8889 252.373 64.0716 252.437C64.3258 252.517 64.5444 252.624 64.727 252.759C64.9098 252.894 65.0488 253.057 65.1442 253.248C65.2474 253.431 65.2991 253.653 65.2991 253.916C65.2991 254.234 65.2157 254.536 65.0488 254.823C64.89 255.101 64.6437 255.327 64.3099 255.502C63.9843 255.678 63.5671 255.765 63.0586 255.765ZM68.3888 255.765C67.9598 255.765 67.5586 255.689 67.1852 255.538C66.8197 255.388 66.5099 255.176 66.2557 254.906L66.9469 253.987C67.2011 254.218 67.4354 254.385 67.6499 254.489C67.8724 254.584 68.071 254.632 68.2459 254.632C68.3809 254.632 68.5001 254.62 68.6033 254.596C68.7146 254.564 68.802 254.52 68.8655 254.465C68.9291 254.401 68.9609 254.322 68.9609 254.226C68.9609 254.091 68.9053 253.983 68.794 253.904C68.6908 253.824 68.5557 253.761 68.3888 253.713C68.222 253.658 68.0432 253.602 67.8526 253.546C67.3759 253.395 67.0303 253.176 66.8158 252.89C66.6092 252.596 66.5059 252.277 66.5059 251.936C66.5059 251.673 66.5734 251.411 66.7085 251.148C66.8515 250.878 67.0739 250.655 67.3759 250.48C67.6857 250.297 68.083 250.206 68.5676 250.206C69.0046 250.206 69.374 250.25 69.6759 250.337C69.9778 250.425 70.2638 250.568 70.534 250.766L69.9023 251.745C69.7514 251.626 69.5806 251.526 69.3899 251.447C69.2072 251.36 69.0364 251.311 68.8774 251.303C68.7344 251.295 68.6113 251.311 68.508 251.351C68.4127 251.391 68.3372 251.443 68.2815 251.506C68.2259 251.57 68.1982 251.638 68.1982 251.709C68.1902 251.86 68.2459 251.98 68.365 252.067C68.4921 252.155 68.651 252.222 68.8417 252.27C69.0324 252.318 69.2191 252.373 69.4018 252.437C69.656 252.517 69.8745 252.624 70.0573 252.759C70.2399 252.894 70.379 253.057 70.4744 253.248C70.5776 253.431 70.6293 253.653 70.6293 253.916C70.6293 254.234 70.5458 254.536 70.379 254.823C70.2201 255.101 69.9739 255.327 69.6401 255.502C69.3144 255.678 68.8973 255.765 68.3888 255.765ZM71.6216 252.985C71.6216 252.452 71.7447 251.976 71.9911 251.554C72.2453 251.132 72.5988 250.803 73.0517 250.564C73.5046 250.317 74.0249 250.194 74.6128 250.194C75.2087 250.194 75.7251 250.317 76.1621 250.564C76.5991 250.803 76.9327 251.132 77.1631 251.554C77.4015 251.976 77.5206 252.452 77.5206 252.985C77.5206 253.519 77.4015 253.999 77.1631 254.429C76.9327 254.851 76.5991 255.184 76.1621 255.431C75.7251 255.678 75.2007 255.801 74.589 255.801C74.0169 255.801 73.5046 255.689 73.0517 255.467C72.6068 255.244 72.2572 254.922 72.0029 254.501C71.7487 254.079 71.6216 253.574 71.6216 252.985ZM73.3019 252.997C73.3019 253.267 73.3576 253.515 73.4688 253.737C73.58 253.952 73.7309 254.123 73.9216 254.25C74.1123 254.377 74.3268 254.441 74.5652 254.441C74.8274 254.441 75.0537 254.377 75.2444 254.25C75.4351 254.123 75.5821 253.952 75.6854 253.737C75.7887 253.515 75.8403 253.267 75.8403 252.997C75.8403 252.719 75.7887 252.472 75.6854 252.258C75.5821 252.043 75.4351 251.872 75.2444 251.745C75.0537 251.618 74.8274 251.554 74.5652 251.554C74.3268 251.554 74.1123 251.618 73.9216 251.745C73.7309 251.872 73.58 252.043 73.4688 252.258C73.3576 252.472 73.3019 252.719 73.3019 252.997Z" fill="#00111A"/>
</g>
<defs>
<clipPath id="clip0_420_383">
<rect width="360" height="396" fill="white"/>
</clipPath>
</defs>
</svg>
