<svg width="806" height="678" viewBox="0 0 806 678" fill="none" xmlns="http://www.w3.org/2000/svg">
<path d="M451.806 226.361L355.199 3.63632M451.806 226.361V451.359M451.806 226.361H355.199M355.199 3.63632H638.2C693.133 -1.66666 803 23.8634 803 168.407C803 312.952 803 394.542 803 417.269C802.621 428.632 795.271 451.359 768.903 451.359C742.535 451.359 546.518 451.359 451.806 451.359M355.199 3.63632V226.361M451.806 451.359V674.084H166.531C113.113 678.63 5.82256 652.494 4.00408 511.586C2.1856 370.678 3.24638 311.209 4.00408 299.088V253.634C5.14059 244.543 11.5052 226.361 27.8717 226.361H355.199" stroke="url(#paint0_linear_290_480)" stroke-opacity="0.1" stroke-width="5" stroke-linejoin="round"/>
<defs>
<linearGradient id="paint0_linear_290_480" x1="769.163" y1="3.00006" x2="36.9494" y2="674.682" gradientUnits="userSpaceOnUse">
<stop stop-color="#20D28B"/>
<stop offset="0.584" stop-color="#F4A258"/>
</linearGradient>
</defs>
</svg>
