<svg width="288" height="69" viewBox="0 0 288 69" fill="none" xmlns="http://www.w3.org/2000/svg">
<path d="M25 10.5H47C52.5228 10.5 57 14.9772 57 20.5V40.5C57 41.6046 56.1046 42.5 55 42.5H25V10.5Z" fill="#20D28B"/>
<g style="mix-blend-mode:multiply">
<path d="M32 26.8404L25 10.5V42.1596L32 58.5V26.8404Z" fill="#4B2222" fill-opacity="0.3"/>
</g>
<path d="M0 28.5C0 27.3954 0.895431 26.5 2 26.5H32V58.5H10C4.47715 58.5 0 54.0228 0 48.5V28.5Z" fill="#F4A258"/>
<path d="M70.4501 27.128L70.8341 31.592L70.6421 31.208C71.3781 29.704 72.4181 28.52 73.7621 27.656C75.1381 26.792 76.7061 26.36 78.4661 26.36C79.5861 26.36 80.5781 26.536 81.4421 26.888C82.3061 27.24 83.0101 27.752 83.5541 28.424C84.1301 29.064 84.4981 29.864 84.6581 30.824L84.4181 30.968C85.1861 29.528 86.2421 28.408 87.5861 27.608C88.9621 26.776 90.4021 26.36 91.9061 26.36C93.8581 26.36 95.3941 26.92 96.5141 28.04C97.6661 29.128 98.2581 30.552 98.2901 32.312V47H93.8261V33.896C93.7941 32.872 93.5381 32.024 93.0581 31.352C92.6101 30.648 91.8101 30.264 90.6581 30.2C89.5061 30.2 88.4661 30.552 87.5381 31.256C86.6421 31.96 85.9381 32.872 85.4261 33.992C84.9141 35.08 84.6421 36.264 84.6101 37.544V47H80.1461V33.896C80.1141 32.872 79.8421 32.024 79.3301 31.352C78.8501 30.648 78.0341 30.264 76.8821 30.2C75.6981 30.2 74.6581 30.552 73.7621 31.256C72.8661 31.96 72.1621 32.872 71.6501 33.992C71.1701 35.112 70.9301 36.312 70.9301 37.592V47H66.4661V27.128H70.4501ZM104.348 36.872C104.348 34.888 104.812 33.096 105.74 31.496C106.7 29.896 108.012 28.632 109.676 27.704C111.34 26.776 113.228 26.312 115.34 26.312C117.516 26.312 119.42 26.776 121.052 27.704C122.684 28.632 123.948 29.896 124.844 31.496C125.74 33.096 126.188 34.888 126.188 36.872C126.188 38.856 125.74 40.664 124.844 42.296C123.948 43.896 122.668 45.16 121.004 46.088C119.372 47.016 117.468 47.48 115.292 47.48C113.18 47.48 111.292 47.048 109.628 46.184C107.996 45.288 106.7 44.056 105.74 42.488C104.812 40.888 104.348 39.016 104.348 36.872ZM108.812 36.92C108.812 38.2 109.1 39.368 109.676 40.424C110.252 41.448 111.02 42.264 111.98 42.872C112.972 43.48 114.06 43.784 115.244 43.784C116.492 43.784 117.596 43.48 118.556 42.872C119.548 42.264 120.316 41.448 120.86 40.424C121.404 39.368 121.676 38.2 121.676 36.92C121.676 35.64 121.404 34.488 120.86 33.464C120.316 32.408 119.548 31.576 118.556 30.968C117.596 30.328 116.492 30.008 115.244 30.008C114.028 30.008 112.924 30.328 111.932 30.968C110.972 31.608 110.204 32.456 109.628 33.512C109.084 34.536 108.812 35.672 108.812 36.92ZM136.216 27.128L136.6 31.592L136.408 31.208C137.144 29.704 138.184 28.52 139.528 27.656C140.904 26.792 142.472 26.36 144.232 26.36C145.352 26.36 146.344 26.536 147.208 26.888C148.072 27.24 148.776 27.752 149.32 28.424C149.896 29.064 150.264 29.864 150.424 30.824L150.184 30.968C150.952 29.528 152.008 28.408 153.352 27.608C154.728 26.776 156.168 26.36 157.672 26.36C159.624 26.36 161.16 26.92 162.28 28.04C163.432 29.128 164.024 30.552 164.056 32.312V47H159.592V33.896C159.56 32.872 159.304 32.024 158.824 31.352C158.376 30.648 157.576 30.264 156.424 30.2C155.272 30.2 154.232 30.552 153.304 31.256C152.408 31.96 151.704 32.872 151.192 33.992C150.68 35.08 150.408 36.264 150.376 37.544V47H145.912V33.896C145.88 32.872 145.608 32.024 145.096 31.352C144.616 30.648 143.8 30.264 142.648 30.2C141.464 30.2 140.424 30.552 139.528 31.256C138.632 31.96 137.928 32.872 137.416 33.992C136.936 35.112 136.696 36.312 136.696 37.592V47H132.232V27.128H136.216ZM181.057 47.48C178.785 47.48 176.833 47.032 175.201 46.136C173.569 45.208 172.305 43.96 171.409 42.392C170.545 40.792 170.113 38.968 170.113 36.92C170.113 34.968 170.609 33.192 171.601 31.592C172.593 29.992 173.921 28.712 175.585 27.752C177.249 26.792 179.105 26.312 181.153 26.312C183.777 26.312 185.953 27.08 187.681 28.616C189.409 30.152 190.577 32.264 191.185 34.952L174.817 40.712L173.761 38.072L187.201 33.176L186.241 33.8C185.857 32.744 185.217 31.832 184.321 31.064C183.425 30.264 182.257 29.864 180.817 29.864C179.601 29.864 178.513 30.168 177.553 30.776C176.593 31.352 175.841 32.152 175.297 33.176C174.753 34.2 174.481 35.368 174.481 36.68C174.481 38.056 174.769 39.272 175.345 40.328C175.921 41.352 176.705 42.168 177.697 42.776C178.721 43.352 179.873 43.64 181.153 43.64C182.017 43.64 182.849 43.48 183.649 43.16C184.481 42.84 185.249 42.424 185.953 41.912L188.017 45.224C187.025 45.896 185.905 46.44 184.657 46.856C183.441 47.272 182.241 47.48 181.057 47.48ZM200.763 27.128L201.147 31.976L200.955 31.208C201.595 29.736 202.635 28.568 204.075 27.704C205.515 26.808 207.179 26.36 209.067 26.36C210.955 26.36 212.491 26.92 213.675 28.04C214.891 29.128 215.515 30.552 215.547 32.312V47H211.035V33.896C211.003 32.808 210.683 31.928 210.075 31.256C209.499 30.552 208.587 30.2 207.339 30.2C206.187 30.2 205.147 30.52 204.219 31.16C203.291 31.8 202.555 32.68 202.011 33.8C201.499 34.92 201.243 36.216 201.243 37.688V47H196.779V27.128H200.763ZM225.23 18.392H229.694V27.224H235.166V30.728H229.694V47H225.23V30.728H221.582V27.224H225.23V18.392ZM246.848 47.768C245.056 47.768 243.568 47.224 242.384 46.136C241.232 45.016 240.624 43.576 240.56 41.816V27.128H245.024V40.232C245.088 41.32 245.392 42.2 245.936 42.872C246.512 43.544 247.408 43.896 248.624 43.928C249.744 43.928 250.736 43.608 251.6 42.968C252.496 42.296 253.216 41.4 253.76 40.28C254.304 39.128 254.576 37.832 254.576 36.392V27.128H259.04V47H254.96L254.576 42.104L254.816 42.968C254.432 43.896 253.84 44.728 253.04 45.464C252.272 46.168 251.36 46.728 250.304 47.144C249.248 47.56 248.096 47.768 246.848 47.768ZM272.331 47.384C270.923 47.384 269.547 47.144 268.203 46.664C266.891 46.152 265.803 45.4 264.939 44.408L266.811 41.816C267.643 42.616 268.491 43.224 269.355 43.64C270.251 44.024 271.131 44.216 271.995 44.216C272.635 44.216 273.227 44.136 273.771 43.976C274.315 43.816 274.747 43.56 275.067 43.208C275.419 42.824 275.595 42.312 275.595 41.672C275.595 40.968 275.355 40.408 274.875 39.992C274.427 39.576 273.835 39.24 273.099 38.984C272.395 38.728 271.643 38.488 270.843 38.264C269.211 37.72 267.963 36.968 267.099 36.008C266.235 35.048 265.803 33.88 265.803 32.504C265.803 31.448 266.059 30.472 266.571 29.576C267.115 28.648 267.899 27.896 268.923 27.32C269.979 26.744 271.275 26.456 272.811 26.456C274.187 26.456 275.419 26.632 276.507 26.984C277.595 27.304 278.619 27.848 279.579 28.616L277.803 31.4C277.227 30.792 276.539 30.344 275.739 30.056C274.939 29.768 274.219 29.608 273.579 29.576C273.035 29.544 272.507 29.624 271.995 29.816C271.515 30.008 271.115 30.28 270.795 30.632C270.475 30.984 270.315 31.4 270.315 31.88C270.315 32.552 270.539 33.096 270.987 33.512C271.435 33.928 272.011 34.264 272.715 34.52C273.451 34.744 274.171 34.984 274.875 35.24C275.867 35.528 276.747 35.912 277.515 36.392C278.283 36.872 278.891 37.464 279.339 38.168C279.819 38.872 280.059 39.752 280.059 40.808C280.059 41.992 279.771 43.096 279.195 44.12C278.651 45.112 277.803 45.912 276.651 46.52C275.531 47.096 274.091 47.384 272.331 47.384Z" fill="#00111A"/>
</svg>
