<svg width="232" height="49" viewBox="0 0 232 49" fill="none" xmlns="http://www.w3.org/2000/svg">
<path d="M32.4164 16.6323L25.6539 1.04453M32.4164 16.6323V32.379M32.4164 16.6323H25.6539M25.6539 1.04453H45.464C49.3093 0.673398 57 2.46015 57 12.5763C57 22.6924 57 28.4026 57 29.9932C56.9735 30.7884 56.459 32.379 54.6132 32.379C52.7675 32.379 39.0463 32.379 32.4164 32.379M25.6539 1.04453V16.6323M32.4164 32.379V47.9667H12.4472C8.70791 48.2849 1.19758 46.4557 1.07029 36.5941C0.942992 26.7325 1.01725 22.5704 1.07029 21.7221V18.541C1.14984 17.9047 1.59537 16.6323 2.74102 16.6323H25.6539" stroke="url(#paint0_linear_678_586)" stroke-width="0.708055" stroke-linejoin="round"/>
<path d="M72.904 18.596L73.192 21.944L73.048 21.656C73.6 20.528 74.38 19.64 75.388 18.992C76.42 18.344 77.596 18.02 78.916 18.02C79.756 18.02 80.5 18.152 81.148 18.416C81.796 18.68 82.324 19.064 82.732 19.568C83.164 20.048 83.44 20.648 83.56 21.368L83.38 21.476C83.956 20.396 84.748 19.556 85.756 18.956C86.788 18.332 87.868 18.02 88.996 18.02C90.46 18.02 91.612 18.44 92.452 19.28C93.316 20.096 93.76 21.164 93.784 22.484V33.5H90.436V23.672C90.412 22.904 90.22 22.268 89.86 21.764C89.524 21.236 88.924 20.948 88.06 20.9C87.196 20.9 86.416 21.164 85.72 21.692C85.048 22.22 84.52 22.904 84.136 23.744C83.752 24.56 83.548 25.448 83.524 26.408V33.5H80.176V23.672C80.152 22.904 79.948 22.268 79.564 21.764C79.204 21.236 78.592 20.948 77.728 20.9C76.84 20.9 76.06 21.164 75.388 21.692C74.716 22.22 74.188 22.904 73.804 23.744C73.444 24.584 73.264 25.484 73.264 26.444V33.5H69.916V18.596H72.904ZM98.327 25.904C98.327 24.416 98.675 23.072 99.371 21.872C100.091 20.672 101.075 19.724 102.323 19.028C103.571 18.332 104.987 17.984 106.571 17.984C108.203 17.984 109.631 18.332 110.855 19.028C112.079 19.724 113.027 20.672 113.699 21.872C114.371 23.072 114.707 24.416 114.707 25.904C114.707 27.392 114.371 28.748 113.699 29.972C113.027 31.172 112.067 32.12 110.819 32.816C109.595 33.512 108.167 33.86 106.535 33.86C104.951 33.86 103.535 33.536 102.287 32.888C101.063 32.216 100.091 31.292 99.371 30.116C98.675 28.916 98.327 27.512 98.327 25.904ZM101.675 25.94C101.675 26.9 101.891 27.776 102.323 28.568C102.755 29.336 103.331 29.948 104.051 30.404C104.795 30.86 105.611 31.088 106.499 31.088C107.435 31.088 108.263 30.86 108.983 30.404C109.727 29.948 110.303 29.336 110.711 28.568C111.119 27.776 111.323 26.9 111.323 25.94C111.323 24.98 111.119 24.116 110.711 23.348C110.303 22.556 109.727 21.932 108.983 21.476C108.263 20.996 107.435 20.756 106.499 20.756C105.587 20.756 104.759 20.996 104.015 21.476C103.295 21.956 102.719 22.592 102.287 23.384C101.879 24.152 101.675 25.004 101.675 25.94ZM122.228 18.596L122.516 21.944L122.372 21.656C122.924 20.528 123.704 19.64 124.712 18.992C125.744 18.344 126.92 18.02 128.24 18.02C129.08 18.02 129.824 18.152 130.472 18.416C131.12 18.68 131.648 19.064 132.056 19.568C132.488 20.048 132.764 20.648 132.884 21.368L132.704 21.476C133.28 20.396 134.072 19.556 135.08 18.956C136.112 18.332 137.192 18.02 138.32 18.02C139.784 18.02 140.936 18.44 141.776 19.28C142.64 20.096 143.084 21.164 143.108 22.484V33.5H139.76V23.672C139.736 22.904 139.544 22.268 139.184 21.764C138.848 21.236 138.248 20.948 137.384 20.9C136.52 20.9 135.74 21.164 135.044 21.692C134.372 22.22 133.844 22.904 133.46 23.744C133.076 24.56 132.872 25.448 132.848 26.408V33.5H129.5V23.672C129.476 22.904 129.272 22.268 128.888 21.764C128.528 21.236 127.916 20.948 127.052 20.9C126.164 20.9 125.384 21.164 124.712 21.692C124.04 22.22 123.512 22.904 123.128 23.744C122.768 24.584 122.588 25.484 122.588 26.444V33.5H119.24V18.596H122.228ZM155.859 33.86C154.155 33.86 152.691 33.524 151.467 32.852C150.243 32.156 149.295 31.22 148.623 30.044C147.975 28.844 147.651 27.476 147.651 25.94C147.651 24.476 148.023 23.144 148.767 21.944C149.511 20.744 150.507 19.784 151.755 19.064C153.003 18.344 154.395 17.984 155.931 17.984C157.899 17.984 159.531 18.56 160.827 19.712C162.123 20.864 162.999 22.448 163.455 24.464L151.179 28.784L150.387 26.804L160.467 23.132L159.747 23.6C159.459 22.808 158.979 22.124 158.307 21.548C157.635 20.948 156.759 20.648 155.679 20.648C154.767 20.648 153.951 20.876 153.231 21.332C152.511 21.764 151.947 22.364 151.539 23.132C151.131 23.9 150.927 24.776 150.927 25.76C150.927 26.792 151.143 27.704 151.575 28.496C152.007 29.264 152.595 29.876 153.339 30.332C154.107 30.764 154.971 30.98 155.931 30.98C156.579 30.98 157.203 30.86 157.803 30.62C158.427 30.38 159.003 30.068 159.531 29.684L161.079 32.168C160.335 32.672 159.495 33.08 158.559 33.392C157.647 33.704 156.747 33.86 155.859 33.86ZM170.638 18.596L170.926 22.232L170.782 21.656C171.262 20.552 172.042 19.676 173.122 19.028C174.202 18.356 175.45 18.02 176.866 18.02C178.282 18.02 179.434 18.44 180.322 19.28C181.234 20.096 181.702 21.164 181.726 22.484V33.5H178.342V23.672C178.318 22.856 178.078 22.196 177.622 21.692C177.19 21.164 176.506 20.9 175.57 20.9C174.706 20.9 173.926 21.14 173.23 21.62C172.534 22.1 171.982 22.76 171.574 23.6C171.19 24.44 170.998 25.412 170.998 26.516V33.5H167.65V18.596H170.638ZM188.989 12.044H192.337V18.668H196.441V21.296H192.337V33.5H188.989V21.296H186.253V18.668H188.989V12.044ZM205.202 34.076C203.858 34.076 202.742 33.668 201.854 32.852C200.99 32.012 200.534 30.932 200.486 29.612V18.596H203.834V28.424C203.882 29.24 204.11 29.9 204.518 30.404C204.95 30.908 205.622 31.172 206.534 31.196C207.374 31.196 208.118 30.956 208.766 30.476C209.438 29.972 209.978 29.3 210.386 28.46C210.794 27.596 210.998 26.624 210.998 25.544V18.596H214.346V33.5H211.286L210.998 29.828L211.178 30.476C210.89 31.172 210.446 31.796 209.846 32.348C209.27 32.876 208.586 33.296 207.794 33.608C207.002 33.92 206.138 34.076 205.202 34.076ZM224.315 33.788C223.259 33.788 222.227 33.608 221.219 33.248C220.235 32.864 219.419 32.3 218.771 31.556L220.175 29.612C220.799 30.212 221.435 30.668 222.083 30.98C222.755 31.268 223.415 31.412 224.063 31.412C224.543 31.412 224.987 31.352 225.395 31.232C225.803 31.112 226.127 30.92 226.367 30.656C226.631 30.368 226.763 29.984 226.763 29.504C226.763 28.976 226.583 28.556 226.223 28.244C225.887 27.932 225.443 27.68 224.891 27.488C224.363 27.296 223.799 27.116 223.199 26.948C221.975 26.54 221.039 25.976 220.391 25.256C219.743 24.536 219.419 23.66 219.419 22.628C219.419 21.836 219.611 21.104 219.995 20.432C220.403 19.736 220.991 19.172 221.759 18.74C222.551 18.308 223.523 18.092 224.675 18.092C225.707 18.092 226.631 18.224 227.447 18.488C228.263 18.728 229.031 19.136 229.751 19.712L228.419 21.8C227.987 21.344 227.471 21.008 226.871 20.792C226.271 20.576 225.731 20.456 225.251 20.432C224.843 20.408 224.447 20.468 224.063 20.612C223.703 20.756 223.403 20.96 223.163 21.224C222.923 21.488 222.803 21.8 222.803 22.16C222.803 22.664 222.971 23.072 223.307 23.384C223.643 23.696 224.075 23.948 224.603 24.14C225.155 24.308 225.695 24.488 226.223 24.68C226.967 24.896 227.627 25.184 228.203 25.544C228.779 25.904 229.235 26.348 229.571 26.876C229.931 27.404 230.111 28.064 230.111 28.856C230.111 29.744 229.895 30.572 229.463 31.34C229.055 32.084 228.419 32.684 227.555 33.14C226.715 33.572 225.635 33.788 224.315 33.788Z" fill="#F1EBE5"/>
<defs>
<linearGradient id="paint0_linear_678_586" x1="54.6314" y1="1" x2="3.3856" y2="48.0185" gradientUnits="userSpaceOnUse">
<stop stop-color="#20D28B"/>
<stop offset="0.584" stop-color="#F4A258"/>
</linearGradient>
</defs>
</svg>
